{
	"asset":{
		"generator":"Khronos glTF Blender I/O v4.4.56",
		"version":"2.0"
	},
	"extensionsUsed":[
		"KHR_materials_specular",
		"KHR_materials_ior"
	],
	"scene":0,
	"scenes":[
		{
			"name":"Scene",
			"nodes":[
				0,
				1,
				2,
				3,
				4,
				5,
				6,
				7,
				8,
				9,
				10
			]
		}
	],
	"nodes":[
		{
			"mesh":0,
			"name":"Cube",
			"translation":[
				0,
				1.0951051712036133,
				0
			]
		},
		{
			"mesh":1,
			"name":"crystal",
			"rotation":[
				-0.42257025837898254,
				-0.24585597217082977,
				0.6628709435462952,
				0.5670903921127319
			],
			"scale":[
				0.5714126825332642,
				0.5714126825332642,
				0.5714126825332642
			],
			"translation":[
				-0.32106879353523254,
				1.133530855178833,
				0.14810089766979218
			]
		},
		{
			"mesh":2,
			"name":"crystal.001",
			"rotation":[
				0.09186234325170517,
				-0.2427242398262024,
				0.6249422430992126,
				0.7362699508666992
			],
			"scale":[
				0.5714126825332642,
				0.5714126825332642,
				0.5714126825332642
			],
			"translation":[
				-0.2976381778717041,
				0.7224178314208984,
				1.303435206413269
			]
		},
		{
			"mesh":3,
			"name":"crystal.002",
			"rotation":[
				0.42618221044540405,
				0.2113875448703766,
				0.46621912717819214,
				0.7458711862564087
			],
			"scale":[
				0.5714126825332642,
				0.5714126825332642,
				0.5714126825332642
			],
			"translation":[
				1.345839262008667,
				0.7949516773223877,
				1.0009124279022217
			]
		},
		{
			"mesh":4,
			"name":"crystal.003",
			"rotation":[
				0.612581729888916,
				0.5875224471092224,
				0.1540621817111969,
				0.5057923197746277
			],
			"scale":[
				0.5714126825332642,
				0.5714126825332642,
				0.5714126825332642
			],
			"translation":[
				0.7730494737625122,
				0.870823085308075,
				-1.0285537242889404
			]
		},
		{
			"mesh":5,
			"name":"crystal.004",
			"rotation":[
				0.7832399010658264,
				0.432319700717926,
				0.42663514614105225,
				0.1327313333749771
			],
			"scale":[
				0.5714126825332642,
				0.5714126825332642,
				0.5714126825332642
			],
			"translation":[
				-0.76813805103302,
				0.8649246096611023,
				-1.2869584560394287
			]
		},
		{
			"mesh":6,
			"name":"crystal.005",
			"rotation":[
				0.3955245018005371,
				0.7895128726959229,
				0.438681423664093,
				0.16669853031635284
			],
			"scale":[
				0.5714126825332642,
				0.5714126825332642,
				0.5714126825332642
			],
			"translation":[
				-1.3824819326400757,
				0.5115891098976135,
				0.23147538304328918
			]
		},
		{
			"mesh":7,
			"name":"crystal.006",
			"rotation":[
				0.7583155035972595,
				0.4524686634540558,
				0.2799737751483917,
				0.37662240862846375
			],
			"scale":[
				0.5714126825332642,
				0.5714126825332642,
				0.5714126825332642
			],
			"translation":[
				1.65109121799469,
				0.3562508225440979,
				-0.7104181051254272
			]
		},
		{
			"mesh":8,
			"name":"crystal.007",
			"rotation":[
				0.7069568634033203,
				0.659228503704071,
				0.1987316757440567,
				0.16166497766971588
			],
			"scale":[
				0.5714126825332642,
				0.5714126825332642,
				0.5714126825332642
			],
			"translation":[
				-1.5308918952941895,
				0.2609853148460388,
				-0.7504580020904541
			]
		},
		{
			"mesh":9,
			"name":"crystal.008",
			"rotation":[
				-0.585957944393158,
				-0.5859012603759766,
				0.2948164641857147,
				0.47587424516677856
			],
			"scale":[
				0.5714126825332642,
				0.5714126229286194,
				0.5714126825332642
			],
			"translation":[
				-0.9763466119766235,
				0.45843181014060974,
				1.325207233428955
			]
		},
		{
			"mesh":10,
			"name":"fliez",
			"rotation":[
				0.489393413066864,
				-0.5464351177215576,
				0.5118799209594727,
				0.44708123803138733
			],
			"scale":[
				4.09512186050415,
				4.09512186050415,
				4.09512186050415
			],
			"translation":[
				-0.42652028799057007,
				1.6905714273452759,
				-0.15460215508937836
			]
		}
	],
	"materials":[
		{
			"doubleSided":true,
			"extensions":{
				"KHR_materials_specular":{
					"specularFactor":0
				},
				"KHR_materials_ior":{
					"ior":1.4500000476837158
				}
			},
			"name":"Ore.001",
			"pbrMetallicRoughness":{
				"baseColorTexture":{
					"index":0
				},
				"metallicFactor":0,
				"roughnessFactor":0.5
			}
		},
		{
			"doubleSided":true,
			"extensions":{
				"KHR_materials_specular":{
					"specularFactor":0.7668393850326538,
					"specularColorFactor":[
						0.6368923187255859,
						1.0,
						0.25448259711265564
					]
				},
				"KHR_materials_ior":{
					"ior":1.4500000476837158
				}
			},
			"name":"Ore Crystal",
			"pbrMetallicRoughness":{
				"baseColorTexture":{
					"index":1
				},
				"roughnessFactor":0.5
			}
		},
		{
			"alphaMode":"BLEND",
			"doubleSided":true,
			"extensions":{
				"KHR_materials_specular":{
					"specularFactor":0
				}
			},
			"name":"fliez",
			"pbrMetallicRoughness":{
				"baseColorTexture":{
					"index":2
				},
				"metallicFactor":0,
				"roughnessFactor":0.5
			}
		}
	],
	"meshes":[
		{
			"name":"Cube",
			"primitives":[
				{
					"attributes":{
						"POSITION":0,
						"NORMAL":1,
						"TEXCOORD_0":2
					},
					"indices":3,
					"material":0
				}
			]
		},
		{
			"name":"Plane",
			"primitives":[
				{
					"attributes":{
						"POSITION":4,
						"NORMAL":5,
						"TEXCOORD_0":6
					},
					"indices":7,
					"material":1
				}
			]
		},
		{
			"name":"Plane.001",
			"primitives":[
				{
					"attributes":{
						"POSITION":8,
						"NORMAL":9,
						"TEXCOORD_0":10
					},
					"indices":7,
					"material":1
				}
			]
		},
		{
			"name":"Plane.002",
			"primitives":[
				{
					"attributes":{
						"POSITION":11,
						"NORMAL":12,
						"TEXCOORD_0":13
					},
					"indices":7,
					"material":1
				}
			]
		},
		{
			"name":"Plane.003",
			"primitives":[
				{
					"attributes":{
						"POSITION":14,
						"NORMAL":15,
						"TEXCOORD_0":16
					},
					"indices":7,
					"material":1
				}
			]
		},
		{
			"name":"Plane.004",
			"primitives":[
				{
					"attributes":{
						"POSITION":17,
						"NORMAL":18,
						"TEXCOORD_0":19
					},
					"indices":7,
					"material":1
				}
			]
		},
		{
			"name":"Plane.005",
			"primitives":[
				{
					"attributes":{
						"POSITION":20,
						"NORMAL":21,
						"TEXCOORD_0":22
					},
					"indices":7,
					"material":1
				}
			]
		},
		{
			"name":"Plane.006",
			"primitives":[
				{
					"attributes":{
						"POSITION":23,
						"NORMAL":24,
						"TEXCOORD_0":25
					},
					"indices":7,
					"material":1
				}
			]
		},
		{
			"name":"Plane.007",
			"primitives":[
				{
					"attributes":{
						"POSITION":26,
						"NORMAL":27,
						"TEXCOORD_0":28
					},
					"indices":7,
					"material":1
				}
			]
		},
		{
			"name":"Plane.008",
			"primitives":[
				{
					"attributes":{
						"POSITION":29,
						"NORMAL":30,
						"TEXCOORD_0":31
					},
					"indices":7,
					"material":1
				}
			]
		},
		{
			"name":"fliez",
			"primitives":[
				{
					"attributes":{
						"POSITION":32,
						"NORMAL":33,
						"TEXCOORD_0":34
					},
					"indices":35,
					"material":2
				}
			]
		}
	],
	"textures":[
		{
			"sampler":0,
			"source":0
		},
		{
			"sampler":0,
			"source":0
		},
		{
			"sampler":1,
			"source":1
		}
	],
	"images":[
		{
			"mimeType":"image/png",
			"name":"ore",
			"uri":"ore.png"
		},
		{
			"mimeType":"image/png",
			"name":"fliez",
			"uri":"fliez.png"
		}
	],
	"accessors":[
		{
			"bufferView":0,
			"componentType":5126,
			"count":242,
			"max":[
				2.1079654693603516,
				0.1949394941329956,
				2.106445550918579
			],
			"min":[
				-2.1112804412841797,
				-1.0694178342819214,
				-2.112800359725952
			],
			"type":"VEC3"
		},
		{
			"bufferView":1,
			"componentType":5126,
			"count":242,
			"type":"VEC3"
		},
		{
			"bufferView":2,
			"componentType":5126,
			"count":242,
			"type":"VEC2"
		},
		{
			"bufferView":3,
			"componentType":5123,
			"count":1296,
			"type":"SCALAR"
		},
		{
			"bufferView":4,
			"componentType":5126,
			"count":24,
			"max":[
				0.8460709452629089,
				0.17607034742832184,
				0.3244880437850952
			],
			"min":[
				-0.5485132932662964,
				-0.16477912664413452,
				-0.49102556705474854
			],
			"type":"VEC3"
		},
		{
			"bufferView":5,
			"componentType":5126,
			"count":24,
			"type":"VEC3"
		},
		{
			"bufferView":6,
			"componentType":5126,
			"count":24,
			"type":"VEC2"
		},
		{
			"bufferView":7,
			"componentType":5123,
			"count":24,
			"type":"SCALAR"
		},
		{
			"bufferView":8,
			"componentType":5126,
			"count":24,
			"max":[
				0.8460709452629089,
				0.17607034742832184,
				0.3244880437850952
			],
			"min":[
				-0.5485132932662964,
				-0.16477912664413452,
				-0.49102556705474854
			],
			"type":"VEC3"
		},
		{
			"bufferView":9,
			"componentType":5126,
			"count":24,
			"type":"VEC3"
		},
		{
			"bufferView":10,
			"componentType":5126,
			"count":24,
			"type":"VEC2"
		},
		{
			"bufferView":11,
			"componentType":5126,
			"count":24,
			"max":[
				0.8460709452629089,
				0.17607034742832184,
				0.3244880437850952
			],
			"min":[
				-0.5485132932662964,
				-0.16477912664413452,
				-0.49102556705474854
			],
			"type":"VEC3"
		},
		{
			"bufferView":12,
			"componentType":5126,
			"count":24,
			"type":"VEC3"
		},
		{
			"bufferView":13,
			"componentType":5126,
			"count":24,
			"type":"VEC2"
		},
		{
			"bufferView":14,
			"componentType":5126,
			"count":24,
			"max":[
				0.8460709452629089,
				0.17607034742832184,
				0.3244880437850952
			],
			"min":[
				-0.5485132932662964,
				-0.16477912664413452,
				-0.49102556705474854
			],
			"type":"VEC3"
		},
		{
			"bufferView":15,
			"componentType":5126,
			"count":24,
			"type":"VEC3"
		},
		{
			"bufferView":16,
			"componentType":5126,
			"count":24,
			"type":"VEC2"
		},
		{
			"bufferView":17,
			"componentType":5126,
			"count":24,
			"max":[
				0.8460709452629089,
				0.17607034742832184,
				0.3244880437850952
			],
			"min":[
				-0.5485132932662964,
				-0.16477912664413452,
				-0.49102556705474854
			],
			"type":"VEC3"
		},
		{
			"bufferView":18,
			"componentType":5126,
			"count":24,
			"type":"VEC3"
		},
		{
			"bufferView":19,
			"componentType":5126,
			"count":24,
			"type":"VEC2"
		},
		{
			"bufferView":20,
			"componentType":5126,
			"count":24,
			"max":[
				0.8460709452629089,
				0.17607034742832184,
				0.3244880437850952
			],
			"min":[
				-0.5485132932662964,
				-0.16477912664413452,
				-0.49102556705474854
			],
			"type":"VEC3"
		},
		{
			"bufferView":21,
			"componentType":5126,
			"count":24,
			"type":"VEC3"
		},
		{
			"bufferView":22,
			"componentType":5126,
			"count":24,
			"type":"VEC2"
		},
		{
			"bufferView":23,
			"componentType":5126,
			"count":24,
			"max":[
				0.8460709452629089,
				0.17607034742832184,
				0.3244880437850952
			],
			"min":[
				-0.5485132932662964,
				-0.16477912664413452,
				-0.49102556705474854
			],
			"type":"VEC3"
		},
		{
			"bufferView":24,
			"componentType":5126,
			"count":24,
			"type":"VEC3"
		},
		{
			"bufferView":25,
			"componentType":5126,
			"count":24,
			"type":"VEC2"
		},
		{
			"bufferView":26,
			"componentType":5126,
			"count":24,
			"max":[
				0.8460709452629089,
				0.17607034742832184,
				0.3244880437850952
			],
			"min":[
				-0.5485132932662964,
				-0.16477912664413452,
				-0.49102556705474854
			],
			"type":"VEC3"
		},
		{
			"bufferView":27,
			"componentType":5126,
			"count":24,
			"type":"VEC3"
		},
		{
			"bufferView":28,
			"componentType":5126,
			"count":24,
			"type":"VEC2"
		},
		{
			"bufferView":29,
			"componentType":5126,
			"count":24,
			"max":[
				0.8460709452629089,
				0.17607034742832184,
				0.3244880437850952
			],
			"min":[
				-0.5485132932662964,
				-0.16477912664413452,
				-0.49102556705474854
			],
			"type":"VEC3"
		},
		{
			"bufferView":30,
			"componentType":5126,
			"count":24,
			"type":"VEC3"
		},
		{
			"bufferView":31,
			"componentType":5126,
			"count":24,
			"type":"VEC2"
		},
		{
			"bufferView":32,
			"componentType":5126,
			"count":4,
			"max":[
				0.5,
				0,
				0.5
			],
			"min":[
				-0.5,
				0,
				-0.5
			],
			"type":"VEC3"
		},
		{
			"bufferView":33,
			"componentType":5126,
			"count":4,
			"type":"VEC3"
		},
		{
			"bufferView":34,
			"componentType":5126,
			"count":4,
			"type":"VEC2"
		},
		{
			"bufferView":35,
			"componentType":5123,
			"count":6,
			"type":"SCALAR"
		}
	],
	"bufferViews":[
		{
			"buffer":0,
			"byteLength":2904,
			"byteOffset":0,
			"target":34962
		},
		{
			"buffer":0,
			"byteLength":2904,
			"byteOffset":2904,
			"target":34962
		},
		{
			"buffer":0,
			"byteLength":1936,
			"byteOffset":5808,
			"target":34962
		},
		{
			"buffer":0,
			"byteLength":2592,
			"byteOffset":7744,
			"target":34963
		},
		{
			"buffer":0,
			"byteLength":288,
			"byteOffset":10336,
			"target":34962
		},
		{
			"buffer":0,
			"byteLength":288,
			"byteOffset":10624,
			"target":34962
		},
		{
			"buffer":0,
			"byteLength":192,
			"byteOffset":10912,
			"target":34962
		},
		{
			"buffer":0,
			"byteLength":48,
			"byteOffset":11104,
			"target":34963
		},
		{
			"buffer":0,
			"byteLength":288,
			"byteOffset":11152,
			"target":34962
		},
		{
			"buffer":0,
			"byteLength":288,
			"byteOffset":11440,
			"target":34962
		},
		{
			"buffer":0,
			"byteLength":192,
			"byteOffset":11728,
			"target":34962
		},
		{
			"buffer":0,
			"byteLength":288,
			"byteOffset":11920,
			"target":34962
		},
		{
			"buffer":0,
			"byteLength":288,
			"byteOffset":12208,
			"target":34962
		},
		{
			"buffer":0,
			"byteLength":192,
			"byteOffset":12496,
			"target":34962
		},
		{
			"buffer":0,
			"byteLength":288,
			"byteOffset":12688,
			"target":34962
		},
		{
			"buffer":0,
			"byteLength":288,
			"byteOffset":12976,
			"target":34962
		},
		{
			"buffer":0,
			"byteLength":192,
			"byteOffset":13264,
			"target":34962
		},
		{
			"buffer":0,
			"byteLength":288,
			"byteOffset":13456,
			"target":34962
		},
		{
			"buffer":0,
			"byteLength":288,
			"byteOffset":13744,
			"target":34962
		},
		{
			"buffer":0,
			"byteLength":192,
			"byteOffset":14032,
			"target":34962
		},
		{
			"buffer":0,
			"byteLength":288,
			"byteOffset":14224,
			"target":34962
		},
		{
			"buffer":0,
			"byteLength":288,
			"byteOffset":14512,
			"target":34962
		},
		{
			"buffer":0,
			"byteLength":192,
			"byteOffset":14800,
			"target":34962
		},
		{
			"buffer":0,
			"byteLength":288,
			"byteOffset":14992,
			"target":34962
		},
		{
			"buffer":0,
			"byteLength":288,
			"byteOffset":15280,
			"target":34962
		},
		{
			"buffer":0,
			"byteLength":192,
			"byteOffset":15568,
			"target":34962
		},
		{
			"buffer":0,
			"byteLength":288,
			"byteOffset":15760,
			"target":34962
		},
		{
			"buffer":0,
			"byteLength":288,
			"byteOffset":16048,
			"target":34962
		},
		{
			"buffer":0,
			"byteLength":192,
			"byteOffset":16336,
			"target":34962
		},
		{
			"buffer":0,
			"byteLength":288,
			"byteOffset":16528,
			"target":34962
		},
		{
			"buffer":0,
			"byteLength":288,
			"byteOffset":16816,
			"target":34962
		},
		{
			"buffer":0,
			"byteLength":192,
			"byteOffset":17104,
			"target":34962
		},
		{
			"buffer":0,
			"byteLength":48,
			"byteOffset":17296,
			"target":34962
		},
		{
			"buffer":0,
			"byteLength":48,
			"byteOffset":17344,
			"target":34962
		},
		{
			"buffer":0,
			"byteLength":32,
			"byteOffset":17392,
			"target":34962
		},
		{
			"buffer":0,
			"byteLength":12,
			"byteOffset":17424,
			"target":34963
		}
	],
	"samplers":[
		{
			"magFilter":9728,
			"minFilter":9984
		},
		{
			"magFilter":9728,
			"minFilter":9984,
			"wrapS":33071,
			"wrapT":33071
		}
	],
	"buffers":[
		{
			"byteLength":17436,
			"uri":"Ore.bin"
		}
	]
}
