{
	"asset":{
		"generator":"Khronos glTF Blender I/O v4.4.56",
		"version":"2.0"
	},
	"scene":0,
	"scenes":[
		{
			"name":"Scene",
			"nodes":[
				0,
				1,
				2,
				3,
				4,
				5,
				6,
				7,
				8,
				9,
				10,
				11,
				12
			]
		}
	],
	"nodes":[
		{
			"mesh":0,
			"name":"Cube",
			"rotation":[
				-0.0070011792704463005,
				0.1815003752708435,
				0.046491120010614395,
				0.982266366481781
			],
			"scale":[
				1,
				0.2938957214355469,
				1
			],
			"translation":[
				-0.12798768281936646,
				5.558263778686523,
				0.9136512279510498
			]
		},
		{
			"mesh":1,
			"name":"Cylinder",
			"rotation":[
				0.6896166801452637,
				0.16121436655521393,
				-0.0954659953713417,
				0.6995177865028381
			],
			"scale":[
				-0.19042032957077026,
				-0.09581603109836578,
				-0.19042034447193146
			],
			"translation":[
				1.7112421989440918,
				6.53565788269043,
				0.6204720735549927
			]
		},
		{
			"mesh":2,
			"name":"Cylinder.001",
			"rotation":[
				0.6896166801452637,
				0.16121436655521393,
				-0.0954659953713417,
				0.6995177865028381
			],
			"scale":[
				-0.19042032957077026,
				-0.09581603109836578,
				-0.19042034447193146
			],
			"translation":[
				1.7112421989440918,
				6.53565788269043,
				0.6204720735549927
			]
		},
		{
			"mesh":3,
			"name":"Cylinder.002",
			"rotation":[
				0.6896166801452637,
				0.16121436655521393,
				-0.0954659953713417,
				0.6995177865028381
			],
			"scale":[
				-0.19042032957077026,
				-0.09581603109836578,
				-0.19042034447193146
			],
			"translation":[
				-1.832740306854248,
				6.1972198486328125,
				1.982025384902954
			]
		},
		{
			"mesh":4,
			"name":"Cube.001",
			"rotation":[
				-0.016212621703743935,
				0.4425284266471863,
				-0.017367269843816757,
				0.8964397311210632
			],
			"translation":[
				2.0596985816955566,
				0.7519502639770508,
				0.34458136558532715
			]
		},
		{
			"mesh":5,
			"name":"Cube.002",
			"rotation":[
				0.003997652791440487,
				0.17984265089035034,
				-0.040388643741607666,
				0.9828577637672424
			],
			"translation":[
				-1.3880254030227661,
				0.6132673025131226,
				1.5955440998077393
			]
		},
		{
			"mesh":6,
			"name":"Cube.003",
			"rotation":[
				-0.038462813943624496,
				-0.9775503873825073,
				-0.08632460236549377,
				0.18831868469715118
			],
			"translation":[
				1.3822013139724731,
				0.6895265579223633,
				-1.4032609462738037
			]
		},
		{
			"mesh":7,
			"name":"Cube.004",
			"rotation":[
				0,
				-0.4889681935310364,
				0,
				0.8723016381263733
			],
			"scale":[
				0.9663345813751221,
				0.44873496890068054,
				0.5748624801635742
			],
			"translation":[
				-2.1125943660736084,
				0.5098540186882019,
				-0.12790226936340332
			]
		},
		{
			"mesh":8,
			"name":"Cube.005",
			"rotation":[
				-0.13582560420036316,
				0.6798217296600342,
				0.23834119737148285,
				0.6801377534866333
			],
			"scale":[
				1,
				0.2938957214355469,
				1
			],
			"translation":[
				3.0416219234466553,
				2.3403141498565674,
				-0.8797397017478943
			]
		},
		{
			"mesh":9,
			"name":"Cube.006",
			"translation":[
				-0.13625580072402954,
				3.573452949523926,
				1.4445044994354248
			]
		},
		{
			"mesh":10,
			"name":"Plane",
			"rotation":[
				-0.5,
				0.5,
				-0.5,
				0.5000000596046448
			],
			"translation":[
				-0.19840849936008453,
				3.565739631652832,
				1.2757601737976074
			]
		},
		{
			"mesh":11,
			"name":"Cube.007",
			"rotation":[
				-0.10390564799308777,
				0.5303242206573486,
				0.2146277129650116,
				0.8135693073272705
			],
			"translation":[
				3.400303363800049,
				2.2432782649993896,
				-0.25003278255462646
			]
		},
		{
			"mesh":12,
			"name":"Plane.001",
			"rotation":[
				-0.8312134146690369,
				0.512679934501648,
				-0.08626143634319305,
				0.19698357582092285
			],
			"translation":[
				3.244295597076416,
				2.154642343521118,
				-0.26426416635513306
			]
		}
	],
	"meshes":[
		{
			"name":"Cube.001",
			"primitives":[
				{
					"attributes":{
						"POSITION":0,
						"NORMAL":1,
						"TEXCOORD_0":2
					},
					"indices":3
				}
			]
		},
		{
			"name":"Cylinder",
			"primitives":[
				{
					"attributes":{
						"POSITION":4,
						"NORMAL":5,
						"TEXCOORD_0":6
					},
					"indices":7
				}
			]
		},
		{
			"name":"Cylinder.001",
			"primitives":[
				{
					"attributes":{
						"POSITION":8,
						"NORMAL":9,
						"TEXCOORD_0":10
					},
					"indices":7
				}
			]
		},
		{
			"name":"Cylinder.002",
			"primitives":[
				{
					"attributes":{
						"POSITION":11,
						"NORMAL":12,
						"TEXCOORD_0":13
					},
					"indices":7
				}
			]
		},
		{
			"name":"Cube.002",
			"primitives":[
				{
					"attributes":{
						"POSITION":14,
						"NORMAL":15,
						"TEXCOORD_0":16
					},
					"indices":17
				}
			]
		},
		{
			"name":"Cube.003",
			"primitives":[
				{
					"attributes":{
						"POSITION":18,
						"NORMAL":19,
						"TEXCOORD_0":20
					},
					"indices":21
				}
			]
		},
		{
			"name":"Cube.004",
			"primitives":[
				{
					"attributes":{
						"POSITION":22,
						"NORMAL":23,
						"TEXCOORD_0":24
					},
					"indices":25
				}
			]
		},
		{
			"name":"Cube.005",
			"primitives":[
				{
					"attributes":{
						"POSITION":26,
						"NORMAL":27,
						"TEXCOORD_0":28
					},
					"indices":29
				}
			]
		},
		{
			"name":"Cube.006",
			"primitives":[
				{
					"attributes":{
						"POSITION":30,
						"NORMAL":31,
						"TEXCOORD_0":32
					},
					"indices":33
				}
			]
		},
		{
			"name":"Cube.007",
			"primitives":[
				{
					"attributes":{
						"POSITION":34,
						"NORMAL":35,
						"TEXCOORD_0":36
					},
					"indices":37
				}
			]
		},
		{
			"name":"Plane",
			"primitives":[
				{
					"attributes":{
						"POSITION":38,
						"NORMAL":39,
						"TEXCOORD_0":40
					},
					"indices":41
				}
			]
		},
		{
			"name":"Cube.008",
			"primitives":[
				{
					"attributes":{
						"POSITION":42,
						"NORMAL":43,
						"TEXCOORD_0":44
					},
					"indices":37
				}
			]
		},
		{
			"name":"Plane.001",
			"primitives":[
				{
					"attributes":{
						"POSITION":45,
						"NORMAL":46,
						"TEXCOORD_0":47
					},
					"indices":41
				}
			]
		}
	],
	"accessors":[
		{
			"bufferView":0,
			"componentType":5126,
			"count":343,
			"max":[
				2.1396751403808594,
				6.103510856628418,
				0.4509667158126831
			],
			"min":[
				-2.1396751403808594,
				-15.170684814453125,
				-1.8016313314437866
			],
			"type":"VEC3"
		},
		{
			"bufferView":1,
			"componentType":5126,
			"count":343,
			"type":"VEC3"
		},
		{
			"bufferView":2,
			"componentType":5126,
			"count":343,
			"type":"VEC2"
		},
		{
			"bufferView":3,
			"componentType":5123,
			"count":696,
			"type":"SCALAR"
		},
		{
			"bufferView":4,
			"componentType":5126,
			"count":60,
			"max":[
				0.9510565400123596,
				1,
				1
			],
			"min":[
				-0.9510565400123596,
				-1,
				-1
			],
			"type":"VEC3"
		},
		{
			"bufferView":5,
			"componentType":5126,
			"count":60,
			"type":"VEC3"
		},
		{
			"bufferView":6,
			"componentType":5126,
			"count":60,
			"type":"VEC2"
		},
		{
			"bufferView":7,
			"componentType":5123,
			"count":108,
			"type":"SCALAR"
		},
		{
			"bufferView":8,
			"componentType":5126,
			"count":60,
			"max":[
				0.9510565400123596,
				1,
				1
			],
			"min":[
				-0.9510565400123596,
				-1,
				-1
			],
			"type":"VEC3"
		},
		{
			"bufferView":9,
			"componentType":5126,
			"count":60,
			"type":"VEC3"
		},
		{
			"bufferView":10,
			"componentType":5126,
			"count":60,
			"type":"VEC2"
		},
		{
			"bufferView":11,
			"componentType":5126,
			"count":60,
			"max":[
				0.9510565400123596,
				1,
				1
			],
			"min":[
				-0.9510565400123596,
				-1,
				-1
			],
			"type":"VEC3"
		},
		{
			"bufferView":12,
			"componentType":5126,
			"count":60,
			"type":"VEC3"
		},
		{
			"bufferView":13,
			"componentType":5126,
			"count":60,
			"type":"VEC2"
		},
		{
			"bufferView":14,
			"componentType":5126,
			"count":207,
			"max":[
				0.19323787093162537,
				0.5599818229675293,
				0.44254571199417114
			],
			"min":[
				-0.1834513396024704,
				-0.5525112152099609,
				-0.595893919467926
			],
			"type":"VEC3"
		},
		{
			"bufferView":15,
			"componentType":5126,
			"count":207,
			"type":"VEC3"
		},
		{
			"bufferView":16,
			"componentType":5126,
			"count":207,
			"type":"VEC2"
		},
		{
			"bufferView":17,
			"componentType":5123,
			"count":336,
			"type":"SCALAR"
		},
		{
			"bufferView":18,
			"componentType":5126,
			"count":185,
			"max":[
				0.17885807156562805,
				0.8498194813728333,
				0.4425455331802368
			],
			"min":[
				-0.18345122039318085,
				-0.5525112152099609,
				-0.5901333689689636
			],
			"type":"VEC3"
		},
		{
			"bufferView":19,
			"componentType":5126,
			"count":185,
			"type":"VEC3"
		},
		{
			"bufferView":20,
			"componentType":5126,
			"count":185,
			"type":"VEC2"
		},
		{
			"bufferView":21,
			"componentType":5123,
			"count":312,
			"type":"SCALAR"
		},
		{
			"bufferView":22,
			"componentType":5126,
			"count":187,
			"max":[
				0.1788582056760788,
				0.637671709060669,
				0.44254541397094727
			],
			"min":[
				-0.19429875910282135,
				-0.5525112152099609,
				-0.5901334881782532
			],
			"type":"VEC3"
		},
		{
			"bufferView":23,
			"componentType":5126,
			"count":187,
			"type":"VEC3"
		},
		{
			"bufferView":24,
			"componentType":5126,
			"count":187,
			"type":"VEC2"
		},
		{
			"bufferView":25,
			"componentType":5123,
			"count":300,
			"type":"SCALAR"
		},
		{
			"bufferView":26,
			"componentType":5126,
			"count":50,
			"max":[
				1.07083261013031,
				1.0272680521011353,
				1
			],
			"min":[
				-1,
				-1,
				-1
			],
			"type":"VEC3"
		},
		{
			"bufferView":27,
			"componentType":5126,
			"count":50,
			"type":"VEC3"
		},
		{
			"bufferView":28,
			"componentType":5126,
			"count":50,
			"type":"VEC2"
		},
		{
			"bufferView":29,
			"componentType":5123,
			"count":72,
			"type":"SCALAR"
		},
		{
			"bufferView":30,
			"componentType":5126,
			"count":24,
			"max":[
				0.9745926856994629,
				7.565546989440918,
				0.07160580158233643
			],
			"min":[
				-0.9745931625366211,
				-7.565546989440918,
				0
			],
			"type":"VEC3"
		},
		{
			"bufferView":31,
			"componentType":5126,
			"count":24,
			"type":"VEC3"
		},
		{
			"bufferView":32,
			"componentType":5126,
			"count":24,
			"type":"VEC2"
		},
		{
			"bufferView":33,
			"componentType":5123,
			"count":36,
			"type":"SCALAR"
		},
		{
			"bufferView":34,
			"componentType":5126,
			"count":130,
			"max":[
				0.19870102405548096,
				0.14990711212158203,
				0.23036479949951172
			],
			"min":[
				-0.15093711018562317,
				-0.14547228813171387,
				-0.19389772415161133
			],
			"type":"VEC3"
		},
		{
			"bufferView":35,
			"componentType":5126,
			"count":130,
			"type":"VEC3"
		},
		{
			"bufferView":36,
			"componentType":5126,
			"count":130,
			"type":"VEC2"
		},
		{
			"bufferView":37,
			"componentType":5123,
			"count":240,
			"type":"SCALAR"
		},
		{
			"bufferView":38,
			"componentType":5126,
			"count":72,
			"max":[
				0.5476236343383789,
				0.1204674243927002,
				0.27591240406036377
			],
			"min":[
				-0.5446629524230957,
				-0.10583353042602539,
				-0.2994624078273773
			],
			"type":"VEC3"
		},
		{
			"bufferView":39,
			"componentType":5126,
			"count":72,
			"type":"VEC3"
		},
		{
			"bufferView":40,
			"componentType":5126,
			"count":72,
			"type":"VEC2"
		},
		{
			"bufferView":41,
			"componentType":5123,
			"count":132,
			"type":"SCALAR"
		},
		{
			"bufferView":42,
			"componentType":5126,
			"count":130,
			"max":[
				0.19870102405548096,
				0.14990711212158203,
				0.23036479949951172
			],
			"min":[
				-0.15093711018562317,
				-0.14547228813171387,
				-0.19389772415161133
			],
			"type":"VEC3"
		},
		{
			"bufferView":43,
			"componentType":5126,
			"count":130,
			"type":"VEC3"
		},
		{
			"bufferView":44,
			"componentType":5126,
			"count":130,
			"type":"VEC2"
		},
		{
			"bufferView":45,
			"componentType":5126,
			"count":72,
			"max":[
				0.5476236343383789,
				0.1204674243927002,
				0.27591240406036377
			],
			"min":[
				-0.5446629524230957,
				-0.10583353042602539,
				-0.2994624078273773
			],
			"type":"VEC3"
		},
		{
			"bufferView":46,
			"componentType":5126,
			"count":72,
			"type":"VEC3"
		},
		{
			"bufferView":47,
			"componentType":5126,
			"count":72,
			"type":"VEC2"
		}
	],
	"bufferViews":[
		{
			"buffer":0,
			"byteLength":4116,
			"byteOffset":0,
			"target":34962
		},
		{
			"buffer":0,
			"byteLength":4116,
			"byteOffset":4116,
			"target":34962
		},
		{
			"buffer":0,
			"byteLength":2744,
			"byteOffset":8232,
			"target":34962
		},
		{
			"buffer":0,
			"byteLength":1392,
			"byteOffset":10976,
			"target":34963
		},
		{
			"buffer":0,
			"byteLength":720,
			"byteOffset":12368,
			"target":34962
		},
		{
			"buffer":0,
			"byteLength":720,
			"byteOffset":13088,
			"target":34962
		},
		{
			"buffer":0,
			"byteLength":480,
			"byteOffset":13808,
			"target":34962
		},
		{
			"buffer":0,
			"byteLength":216,
			"byteOffset":14288,
			"target":34963
		},
		{
			"buffer":0,
			"byteLength":720,
			"byteOffset":14504,
			"target":34962
		},
		{
			"buffer":0,
			"byteLength":720,
			"byteOffset":15224,
			"target":34962
		},
		{
			"buffer":0,
			"byteLength":480,
			"byteOffset":15944,
			"target":34962
		},
		{
			"buffer":0,
			"byteLength":720,
			"byteOffset":16424,
			"target":34962
		},
		{
			"buffer":0,
			"byteLength":720,
			"byteOffset":17144,
			"target":34962
		},
		{
			"buffer":0,
			"byteLength":480,
			"byteOffset":17864,
			"target":34962
		},
		{
			"buffer":0,
			"byteLength":2484,
			"byteOffset":18344,
			"target":34962
		},
		{
			"buffer":0,
			"byteLength":2484,
			"byteOffset":20828,
			"target":34962
		},
		{
			"buffer":0,
			"byteLength":1656,
			"byteOffset":23312,
			"target":34962
		},
		{
			"buffer":0,
			"byteLength":672,
			"byteOffset":24968,
			"target":34963
		},
		{
			"buffer":0,
			"byteLength":2220,
			"byteOffset":25640,
			"target":34962
		},
		{
			"buffer":0,
			"byteLength":2220,
			"byteOffset":27860,
			"target":34962
		},
		{
			"buffer":0,
			"byteLength":1480,
			"byteOffset":30080,
			"target":34962
		},
		{
			"buffer":0,
			"byteLength":624,
			"byteOffset":31560,
			"target":34963
		},
		{
			"buffer":0,
			"byteLength":2244,
			"byteOffset":32184,
			"target":34962
		},
		{
			"buffer":0,
			"byteLength":2244,
			"byteOffset":34428,
			"target":34962
		},
		{
			"buffer":0,
			"byteLength":1496,
			"byteOffset":36672,
			"target":34962
		},
		{
			"buffer":0,
			"byteLength":600,
			"byteOffset":38168,
			"target":34963
		},
		{
			"buffer":0,
			"byteLength":600,
			"byteOffset":38768,
			"target":34962
		},
		{
			"buffer":0,
			"byteLength":600,
			"byteOffset":39368,
			"target":34962
		},
		{
			"buffer":0,
			"byteLength":400,
			"byteOffset":39968,
			"target":34962
		},
		{
			"buffer":0,
			"byteLength":144,
			"byteOffset":40368,
			"target":34963
		},
		{
			"buffer":0,
			"byteLength":288,
			"byteOffset":40512,
			"target":34962
		},
		{
			"buffer":0,
			"byteLength":288,
			"byteOffset":40800,
			"target":34962
		},
		{
			"buffer":0,
			"byteLength":192,
			"byteOffset":41088,
			"target":34962
		},
		{
			"buffer":0,
			"byteLength":72,
			"byteOffset":41280,
			"target":34963
		},
		{
			"buffer":0,
			"byteLength":1560,
			"byteOffset":41352,
			"target":34962
		},
		{
			"buffer":0,
			"byteLength":1560,
			"byteOffset":42912,
			"target":34962
		},
		{
			"buffer":0,
			"byteLength":1040,
			"byteOffset":44472,
			"target":34962
		},
		{
			"buffer":0,
			"byteLength":480,
			"byteOffset":45512,
			"target":34963
		},
		{
			"buffer":0,
			"byteLength":864,
			"byteOffset":45992,
			"target":34962
		},
		{
			"buffer":0,
			"byteLength":864,
			"byteOffset":46856,
			"target":34962
		},
		{
			"buffer":0,
			"byteLength":576,
			"byteOffset":47720,
			"target":34962
		},
		{
			"buffer":0,
			"byteLength":264,
			"byteOffset":48296,
			"target":34963
		},
		{
			"buffer":0,
			"byteLength":1560,
			"byteOffset":48560,
			"target":34962
		},
		{
			"buffer":0,
			"byteLength":1560,
			"byteOffset":50120,
			"target":34962
		},
		{
			"buffer":0,
			"byteLength":1040,
			"byteOffset":51680,
			"target":34962
		},
		{
			"buffer":0,
			"byteLength":864,
			"byteOffset":52720,
			"target":34962
		},
		{
			"buffer":0,
			"byteLength":864,
			"byteOffset":53584,
			"target":34962
		},
		{
			"buffer":0,
			"byteLength":576,
			"byteOffset":54448,
			"target":34962
		}
	],
	"buffers":[
		{
			"byteLength":55024,
			"uri":"Armory.bin"
		}
	]
}
