{
	"asset":{
		"generator":"Khronos glTF Blender I/O v4.4.56",
		"version":"2.0"
	},
	"scene":0,
	"scenes":[
		{
			"name":"Scene",
			"nodes":[
				0,
				1,
				2,
				3,
				4,
				5,
				6
			]
		}
	],
	"nodes":[
		{
			"mesh":0,
			"name":"Cube",
			"scale":[
				2.535339593887329,
				1.2948907613754272,
				1.396295189857483
			],
			"translation":[
				0,
				1.5856108665466309,
				0
			]
		},
		{
			"mesh":1,
			"name":"Plane",
			"rotation":[
				-0.5,
				0.5,
				-0.5,
				0.5000000596046448
			],
			"scale":[
				0.8090528845787048,
				0.8090528845787048,
				0.521088719367981
			],
			"translation":[
				-1.8036322593688965,
				2.5880894660949707,
				-1.5669134855270386
			]
		},
		{
			"mesh":2,
			"name":"Cylinder",
			"scale":[
				0.6780847907066345,
				0.11856655031442642,
				0.6780847907066345
			],
			"translation":[
				3.5166549682617188,
				1.7056888341903687,
				1.059051275253296
			]
		},
		{
			"mesh":3,
			"name":"Cylinder.001",
			"scale":[
				0.2083318829536438,
				0.2083318829536438,
				0.2083318829536438
			],
			"translation":[
				2.9456710815429688,
				0.48600468039512634,
				-0.4274061918258667
			]
		},
		{
			"mesh":4,
			"name":"Cube.001",
			"rotation":[
				0,
				-0.3188673257827759,
				0,
				0.9477993845939636
			],
			"scale":[
				0.17309582233428955,
				0.17309582233428955,
				0.17309582233428955
			],
			"translation":[
				3.3915653228759766,
				0.506657600402832,
				-0.15144222974777222
			]
		},
		{
			"mesh":5,
			"name":"Cube.002",
			"rotation":[
				-0.47423550486564636,
				-0.4838049113750458,
				0.03174470737576485,
				0.7348644733428955
			],
			"scale":[
				0.12797138094902039,
				0.12797138094902039,
				0.12797138094902039
			],
			"translation":[
				3.8771915435791016,
				0.48575565218925476,
				0.13742898404598236
			]
		},
		{
			"mesh":6,
			"name":"Cube.003",
			"rotation":[
				-0.0019061785424128175,
				0.18796171247959137,
				0.015023683197796345,
				0.9820595979690552
			],
			"scale":[
				0.14435435831546783,
				0.14435437321662903,
				0.14435437321662903
			],
			"translation":[
				4.125730991363525,
				0.47984519600868225,
				-0.24643096327781677
			]
		}
	],
	"meshes":[
		{
			"name":"Cube.009",
			"primitives":[
				{
					"attributes":{
						"POSITION":0,
						"NORMAL":1,
						"TEXCOORD_0":2
					},
					"indices":3
				}
			]
		},
		{
			"name":"Plane.002",
			"primitives":[
				{
					"attributes":{
						"POSITION":4,
						"NORMAL":5,
						"TEXCOORD_0":6
					},
					"indices":7
				}
			]
		},
		{
			"name":"Cylinder.003",
			"primitives":[
				{
					"attributes":{
						"POSITION":8,
						"NORMAL":9,
						"TEXCOORD_0":10
					},
					"indices":11
				}
			]
		},
		{
			"name":"Cylinder.004",
			"primitives":[
				{
					"attributes":{
						"POSITION":12,
						"NORMAL":13,
						"TEXCOORD_0":14
					},
					"indices":15
				}
			]
		},
		{
			"name":"Cube.010",
			"primitives":[
				{
					"attributes":{
						"POSITION":16,
						"NORMAL":17,
						"TEXCOORD_0":18
					},
					"indices":19
				}
			]
		},
		{
			"name":"Cube.011",
			"primitives":[
				{
					"attributes":{
						"POSITION":20,
						"NORMAL":21,
						"TEXCOORD_0":22
					},
					"indices":19
				}
			]
		},
		{
			"name":"Cube.012",
			"primitives":[
				{
					"attributes":{
						"POSITION":23,
						"NORMAL":24,
						"TEXCOORD_0":25
					},
					"indices":19
				}
			]
		}
	],
	"accessors":[
		{
			"bufferView":0,
			"componentType":5126,
			"count":596,
			"max":[
				1.0501773357391357,
				2.0023975372314453,
				1.0501774549484253
			],
			"min":[
				-1.0501773357391357,
				-1.0028514862060547,
				-1.0501774549484253
			],
			"type":"VEC3"
		},
		{
			"bufferView":1,
			"componentType":5126,
			"count":596,
			"type":"VEC3"
		},
		{
			"bufferView":2,
			"componentType":5126,
			"count":596,
			"type":"VEC2"
		},
		{
			"bufferView":3,
			"componentType":5123,
			"count":1008,
			"type":"SCALAR"
		},
		{
			"bufferView":4,
			"componentType":5126,
			"count":162,
			"max":[
				1.7310338020324707,
				0.17504975199699402,
				0.9902470111846924
			],
			"min":[
				-0.4107239246368408,
				-0.1064070463180542,
				-1.0097525119781494
			],
			"type":"VEC3"
		},
		{
			"bufferView":5,
			"componentType":5126,
			"count":162,
			"type":"VEC3"
		},
		{
			"bufferView":6,
			"componentType":5126,
			"count":162,
			"type":"VEC2"
		},
		{
			"bufferView":7,
			"componentType":5123,
			"count":330,
			"type":"SCALAR"
		},
		{
			"bufferView":8,
			"componentType":5126,
			"count":680,
			"max":[
				1.4806804656982422,
				11.850003242492676,
				1.5568792819976807
			],
			"min":[
				-1.480680227279663,
				-11.417611122131348,
				-1.5568794012069702
			],
			"type":"VEC3"
		},
		{
			"bufferView":9,
			"componentType":5126,
			"count":680,
			"type":"VEC3"
		},
		{
			"bufferView":10,
			"componentType":5126,
			"count":680,
			"type":"VEC2"
		},
		{
			"bufferView":11,
			"componentType":5123,
			"count":1068,
			"type":"SCALAR"
		},
		{
			"bufferView":12,
			"componentType":5126,
			"count":256,
			"max":[
				1,
				5.820725917816162,
				1
			],
			"min":[
				-1,
				-1,
				-1
			],
			"type":"VEC3"
		},
		{
			"bufferView":13,
			"componentType":5126,
			"count":256,
			"type":"VEC3"
		},
		{
			"bufferView":14,
			"componentType":5126,
			"count":256,
			"type":"VEC2"
		},
		{
			"bufferView":15,
			"componentType":5123,
			"count":420,
			"type":"SCALAR"
		},
		{
			"bufferView":16,
			"componentType":5126,
			"count":288,
			"max":[
				1.5466465950012207,
				2.0416479110717773,
				1.5466464757919312
			],
			"min":[
				-1.5466465950012207,
				-1.201712965965271,
				-1.5466467142105103
			],
			"type":"VEC3"
		},
		{
			"bufferView":17,
			"componentType":5126,
			"count":288,
			"type":"VEC3"
		},
		{
			"bufferView":18,
			"componentType":5126,
			"count":288,
			"type":"VEC2"
		},
		{
			"bufferView":19,
			"componentType":5123,
			"count":432,
			"type":"SCALAR"
		},
		{
			"bufferView":20,
			"componentType":5126,
			"count":288,
			"max":[
				1.5466465950012207,
				2.0416479110717773,
				1.5466464757919312
			],
			"min":[
				-1.5466465950012207,
				-1.201712965965271,
				-1.5466467142105103
			],
			"type":"VEC3"
		},
		{
			"bufferView":21,
			"componentType":5126,
			"count":288,
			"type":"VEC3"
		},
		{
			"bufferView":22,
			"componentType":5126,
			"count":288,
			"type":"VEC2"
		},
		{
			"bufferView":23,
			"componentType":5126,
			"count":288,
			"max":[
				1.5466465950012207,
				2.0416479110717773,
				1.5466464757919312
			],
			"min":[
				-1.5466465950012207,
				-1.201712965965271,
				-1.5466467142105103
			],
			"type":"VEC3"
		},
		{
			"bufferView":24,
			"componentType":5126,
			"count":288,
			"type":"VEC3"
		},
		{
			"bufferView":25,
			"componentType":5126,
			"count":288,
			"type":"VEC2"
		}
	],
	"bufferViews":[
		{
			"buffer":0,
			"byteLength":7152,
			"byteOffset":0,
			"target":34962
		},
		{
			"buffer":0,
			"byteLength":7152,
			"byteOffset":7152,
			"target":34962
		},
		{
			"buffer":0,
			"byteLength":4768,
			"byteOffset":14304,
			"target":34962
		},
		{
			"buffer":0,
			"byteLength":2016,
			"byteOffset":19072,
			"target":34963
		},
		{
			"buffer":0,
			"byteLength":1944,
			"byteOffset":21088,
			"target":34962
		},
		{
			"buffer":0,
			"byteLength":1944,
			"byteOffset":23032,
			"target":34962
		},
		{
			"buffer":0,
			"byteLength":1296,
			"byteOffset":24976,
			"target":34962
		},
		{
			"buffer":0,
			"byteLength":660,
			"byteOffset":26272,
			"target":34963
		},
		{
			"buffer":0,
			"byteLength":8160,
			"byteOffset":26932,
			"target":34962
		},
		{
			"buffer":0,
			"byteLength":8160,
			"byteOffset":35092,
			"target":34962
		},
		{
			"buffer":0,
			"byteLength":5440,
			"byteOffset":43252,
			"target":34962
		},
		{
			"buffer":0,
			"byteLength":2136,
			"byteOffset":48692,
			"target":34963
		},
		{
			"buffer":0,
			"byteLength":3072,
			"byteOffset":50828,
			"target":34962
		},
		{
			"buffer":0,
			"byteLength":3072,
			"byteOffset":53900,
			"target":34962
		},
		{
			"buffer":0,
			"byteLength":2048,
			"byteOffset":56972,
			"target":34962
		},
		{
			"buffer":0,
			"byteLength":840,
			"byteOffset":59020,
			"target":34963
		},
		{
			"buffer":0,
			"byteLength":3456,
			"byteOffset":59860,
			"target":34962
		},
		{
			"buffer":0,
			"byteLength":3456,
			"byteOffset":63316,
			"target":34962
		},
		{
			"buffer":0,
			"byteLength":2304,
			"byteOffset":66772,
			"target":34962
		},
		{
			"buffer":0,
			"byteLength":864,
			"byteOffset":69076,
			"target":34963
		},
		{
			"buffer":0,
			"byteLength":3456,
			"byteOffset":69940,
			"target":34962
		},
		{
			"buffer":0,
			"byteLength":3456,
			"byteOffset":73396,
			"target":34962
		},
		{
			"buffer":0,
			"byteLength":2304,
			"byteOffset":76852,
			"target":34962
		},
		{
			"buffer":0,
			"byteLength":3456,
			"byteOffset":79156,
			"target":34962
		},
		{
			"buffer":0,
			"byteLength":3456,
			"byteOffset":82612,
			"target":34962
		},
		{
			"buffer":0,
			"byteLength":2304,
			"byteOffset":86068,
			"target":34962
		}
	],
	"buffers":[
		{
			"byteLength":88372,
			"uri":"chest.bin"
		}
	]
}
