{
	"asset":{
		"generator":"Khronos glTF Blender I/O v4.4.56",
		"version":"2.0"
	},
	"scene":0,
	"scenes":[
		{
			"name":"Scene",
			"nodes":[
				0,
				1,
				2,
				3,
				4,
				5,
				6,
				7,
				8,
				9,
				10
			]
		}
	],
	"nodes":[
		{
			"mesh":0,
			"name":"Cylinder",
			"rotation":[
				0.7071068286895752,
				0,
				0,
				0.7071068286895752
			],
			"scale":[
				0.2688572406768799,
				1.4204119443893433,
				0.2688572406768799
			],
			"translation":[
				0.2770742177963257,
				1.5804412364959717,
				-0.8598144054412842
			]
		},
		{
			"mesh":1,
			"name":"Cylinder.001",
			"rotation":[
				0.40825799107551575,
				-0.4927559494972229,
				0.5551113486289978,
				0.5313835144042969
			],
			"scale":[
				0.2486146241426468,
				1.3134671449661255,
				0.2486146092414856
			],
			"translation":[
				0.33397528529167175,
				1.622603178024292,
				-0.7660537958145142
			]
		},
		{
			"mesh":2,
			"name":"Cylinder.002",
			"rotation":[
				-0.515380859375,
				0,
				0,
				0.8569612503051758
			],
			"scale":[
				0.1347169727087021,
				0.8151552677154541,
				0.1347169727087021
			],
			"translation":[
				1.4405044317245483,
				2.0824971199035645,
				3.3816614151000977
			]
		},
		{
			"mesh":3,
			"name":"Cylinder.003",
			"rotation":[
				-0.6875514984130859,
				-0.06455591320991516,
				0.022145617753267288,
				0.7229211926460266
			],
			"scale":[
				0.31874239444732666,
				1.3445247411727905,
				0.31874242424964905
			],
			"translation":[
				0.4864623546600342,
				0.549649178981781,
				-0.4832223951816559
			]
		},
		{
			"mesh":4,
			"name":"Cylinder.004",
			"rotation":[
				0.8157598376274109,
				-0.5182032585144043,
				-0.2360624521970749,
				0.10136941075325012
			],
			"scale":[
				0.3304159343242645,
				1.3937662839889526,
				0.3304159641265869
			],
			"translation":[
				-1.461370825767517,
				0.9589506387710571,
				-0.816120982170105
			]
		},
		{
			"mesh":5,
			"name":"Cylinder.005",
			"scale":[
				4.9031147956848145,
				0.212702676653862,
				4.9031147956848145
			],
			"translation":[
				0.19895629584789276,
				0.24462425708770752,
				-0.7333011627197266
			]
		},
		{
			"mesh":6,
			"name":"Cylinder.006",
			"rotation":[
				-0.03704054281115532,
				0,
				0,
				0.9993137717247009
			],
			"scale":[
				0.15028896927833557,
				1.797930359840393,
				0.15028898417949677
			],
			"translation":[
				-0.15040358901023865,
				1.9686615467071533,
				-4.175874710083008
			]
		},
		{
			"mesh":7,
			"name":"Cylinder.007",
			"rotation":[
				0.7138594388961792,
				-0.007458214648067951,
				-0.001302793505601585,
				0.7002481818199158
			],
			"scale":[
				-0.08631739020347595,
				-5.604331016540527,
				-0.08631739020347595
			],
			"translation":[
				-0.1096557006239891,
				5.248388767242432,
				-0.7810877561569214
			]
		},
		{
			"mesh":8,
			"name":"Cylinder.008",
			"rotation":[
				-0.26243656873703003,
				-0.05874481424689293,
				-0.21039074659347534,
				0.9398999214172363
			],
			"scale":[
				2.0401558876037598,
				0.6485781073570251,
				2.0401558876037598
			],
			"translation":[
				0.6974928975105286,
				1.74348783493042,
				-6.970931529998779
			]
		},
		{
			"mesh":9,
			"name":"Cylinder.009",
			"scale":[
				0.5401237607002258,
				0.036572184413671494,
				0.49727341532707214
			],
			"translation":[
				3.760471820831299,
				0.08516807109117508,
				-5.696812629699707
			]
		},
		{
			"mesh":10,
			"name":"Cube",
			"rotation":[
				0,
				0,
				0.2873457074165344,
				0.9578270316123962
			],
			"scale":[
				0.02081519551575184,
				0.6127050518989563,
				0.02081519365310669
			],
			"translation":[
				3.842097282409668,
				1.7657665014266968,
				-6.4275712966918945
			]
		}
	],
	"meshes":[
		{
			"name":"Cylinder.005",
			"primitives":[
				{
					"attributes":{
						"POSITION":0,
						"NORMAL":1,
						"TEXCOORD_0":2
					},
					"indices":3
				}
			]
		},
		{
			"name":"Cylinder.006",
			"primitives":[
				{
					"attributes":{
						"POSITION":4,
						"NORMAL":5,
						"TEXCOORD_0":6
					},
					"indices":7
				}
			]
		},
		{
			"name":"Cylinder.007",
			"primitives":[
				{
					"attributes":{
						"POSITION":8,
						"NORMAL":9,
						"TEXCOORD_0":10
					},
					"indices":11
				}
			]
		},
		{
			"name":"Cylinder.008",
			"primitives":[
				{
					"attributes":{
						"POSITION":12,
						"NORMAL":13,
						"TEXCOORD_0":14
					},
					"indices":15
				}
			]
		},
		{
			"name":"Cylinder.009",
			"primitives":[
				{
					"attributes":{
						"POSITION":16,
						"NORMAL":17,
						"TEXCOORD_0":18
					},
					"indices":15
				}
			]
		},
		{
			"name":"Cylinder.010",
			"primitives":[
				{
					"attributes":{
						"POSITION":19,
						"NORMAL":20,
						"TEXCOORD_0":21
					},
					"indices":22
				}
			]
		},
		{
			"name":"Cylinder.011",
			"primitives":[
				{
					"attributes":{
						"POSITION":23,
						"NORMAL":24,
						"TEXCOORD_0":25
					},
					"indices":26
				}
			]
		},
		{
			"name":"Cylinder.012",
			"primitives":[
				{
					"attributes":{
						"POSITION":27,
						"NORMAL":28,
						"TEXCOORD_0":29
					},
					"indices":30
				}
			]
		},
		{
			"name":"Cylinder.013",
			"primitives":[
				{
					"attributes":{
						"POSITION":31,
						"NORMAL":32,
						"TEXCOORD_0":33
					},
					"indices":34
				}
			]
		},
		{
			"name":"Cylinder.015",
			"primitives":[
				{
					"attributes":{
						"POSITION":35,
						"NORMAL":36,
						"TEXCOORD_0":37
					},
					"indices":38
				}
			]
		},
		{
			"name":"Cube.013",
			"primitives":[
				{
					"attributes":{
						"POSITION":39,
						"NORMAL":40,
						"TEXCOORD_0":41
					},
					"indices":42
				}
			]
		}
	],
	"accessors":[
		{
			"bufferView":0,
			"componentType":5126,
			"count":398,
			"max":[
				4.778220176696777,
				2.6689934730529785,
				5.283285140991211
			],
			"min":[
				-9.805861473083496,
				-2.745074510574341,
				-3.3485617637634277
			],
			"type":"VEC3"
		},
		{
			"bufferView":1,
			"componentType":5126,
			"count":398,
			"type":"VEC3"
		},
		{
			"bufferView":2,
			"componentType":5126,
			"count":398,
			"type":"VEC2"
		},
		{
			"bufferView":3,
			"componentType":5123,
			"count":606,
			"type":"SCALAR"
		},
		{
			"bufferView":4,
			"componentType":5126,
			"count":418,
			"max":[
				4.778220176696777,
				2.6291167736053467,
				5.945156574249268
			],
			"min":[
				-9.775601387023926,
				-3.344109535217285,
				-3.3485617637634277
			],
			"type":"VEC3"
		},
		{
			"bufferView":5,
			"componentType":5126,
			"count":418,
			"type":"VEC3"
		},
		{
			"bufferView":6,
			"componentType":5126,
			"count":418,
			"type":"VEC2"
		},
		{
			"bufferView":7,
			"componentType":5123,
			"count":636,
			"type":"SCALAR"
		},
		{
			"bufferView":8,
			"componentType":5126,
			"count":140,
			"max":[
				7.59932279586792,
				5.730922698974609,
				-9.738842010498047
			],
			"min":[
				-16.04916763305664,
				0.2025853395462036,
				-34.181705474853516
			],
			"type":"VEC3"
		},
		{
			"bufferView":9,
			"componentType":5126,
			"count":140,
			"type":"VEC3"
		},
		{
			"bufferView":10,
			"componentType":5126,
			"count":140,
			"type":"VEC2"
		},
		{
			"bufferView":11,
			"componentType":5123,
			"count":216,
			"type":"SCALAR"
		},
		{
			"bufferView":12,
			"componentType":5126,
			"count":18,
			"max":[
				0.8660253882408142,
				1,
				0.5
			],
			"min":[
				-0.8660253882408142,
				-1,
				-1
			],
			"type":"VEC3"
		},
		{
			"bufferView":13,
			"componentType":5126,
			"count":18,
			"type":"VEC3"
		},
		{
			"bufferView":14,
			"componentType":5126,
			"count":18,
			"type":"VEC2"
		},
		{
			"bufferView":15,
			"componentType":5123,
			"count":24,
			"type":"SCALAR"
		},
		{
			"bufferView":16,
			"componentType":5126,
			"count":18,
			"max":[
				0.8660253882408142,
				1,
				0.5
			],
			"min":[
				-0.8660253882408142,
				-1,
				-1
			],
			"type":"VEC3"
		},
		{
			"bufferView":17,
			"componentType":5126,
			"count":18,
			"type":"VEC3"
		},
		{
			"bufferView":18,
			"componentType":5126,
			"count":18,
			"type":"VEC2"
		},
		{
			"bufferView":19,
			"componentType":5126,
			"count":48,
			"max":[
				1,
				1,
				1
			],
			"min":[
				-1,
				-1,
				-1
			],
			"type":"VEC3"
		},
		{
			"bufferView":20,
			"componentType":5126,
			"count":48,
			"type":"VEC3"
		},
		{
			"bufferView":21,
			"componentType":5126,
			"count":48,
			"type":"VEC2"
		},
		{
			"bufferView":22,
			"componentType":5123,
			"count":84,
			"type":"SCALAR"
		},
		{
			"bufferView":23,
			"componentType":5126,
			"count":268,
			"max":[
				4.7337422370910645,
				2.3181612491607666,
				55.97230911254883
			],
			"min":[
				-5.085816860198975,
				-1.3871123790740967,
				-7.318540573120117
			],
			"type":"VEC3"
		},
		{
			"bufferView":24,
			"componentType":5126,
			"count":268,
			"type":"VEC3"
		},
		{
			"bufferView":25,
			"componentType":5126,
			"count":268,
			"type":"VEC2"
		},
		{
			"bufferView":26,
			"componentType":5123,
			"count":408,
			"type":"SCALAR"
		},
		{
			"bufferView":27,
			"componentType":5126,
			"count":30,
			"max":[
				0.9510565400123596,
				1,
				0.80901700258255
			],
			"min":[
				-0.9510565400123596,
				-1,
				-1
			],
			"type":"VEC3"
		},
		{
			"bufferView":28,
			"componentType":5126,
			"count":30,
			"type":"VEC3"
		},
		{
			"bufferView":29,
			"componentType":5126,
			"count":30,
			"type":"VEC2"
		},
		{
			"bufferView":30,
			"componentType":5123,
			"count":48,
			"type":"SCALAR"
		},
		{
			"bufferView":31,
			"componentType":5126,
			"count":312,
			"max":[
				1.2002825736999512,
				2.8114888668060303,
				1.3859672546386719
			],
			"min":[
				-1.2002825736999512,
				-2.512962818145752,
				-1.3859667778015137
			],
			"type":"VEC3"
		},
		{
			"bufferView":32,
			"componentType":5126,
			"count":312,
			"type":"VEC3"
		},
		{
			"bufferView":33,
			"componentType":5126,
			"count":312,
			"type":"VEC2"
		},
		{
			"bufferView":34,
			"componentType":5123,
			"count":564,
			"type":"SCALAR"
		},
		{
			"bufferView":35,
			"componentType":5126,
			"count":60,
			"max":[
				1.775983452796936,
				1.2777283191680908,
				2.050729274749756
			],
			"min":[
				-1.775983452796936,
				-1,
				-2.0507287979125977
			],
			"type":"VEC3"
		},
		{
			"bufferView":36,
			"componentType":5126,
			"count":60,
			"type":"VEC3"
		},
		{
			"bufferView":37,
			"componentType":5126,
			"count":60,
			"type":"VEC2"
		},
		{
			"bufferView":38,
			"componentType":5123,
			"count":96,
			"type":"SCALAR"
		},
		{
			"bufferView":39,
			"componentType":5126,
			"count":132,
			"max":[
				1.7771453857421875,
				1.2244832515716553,
				16.47134780883789
			],
			"min":[
				-1.7771148681640625,
				-3.4048233032226562,
				-16.47158432006836
			],
			"type":"VEC3"
		},
		{
			"bufferView":40,
			"componentType":5126,
			"count":132,
			"type":"VEC3"
		},
		{
			"bufferView":41,
			"componentType":5126,
			"count":132,
			"type":"VEC2"
		},
		{
			"bufferView":42,
			"componentType":5123,
			"count":204,
			"type":"SCALAR"
		}
	],
	"bufferViews":[
		{
			"buffer":0,
			"byteLength":4776,
			"byteOffset":0,
			"target":34962
		},
		{
			"buffer":0,
			"byteLength":4776,
			"byteOffset":4776,
			"target":34962
		},
		{
			"buffer":0,
			"byteLength":3184,
			"byteOffset":9552,
			"target":34962
		},
		{
			"buffer":0,
			"byteLength":1212,
			"byteOffset":12736,
			"target":34963
		},
		{
			"buffer":0,
			"byteLength":5016,
			"byteOffset":13948,
			"target":34962
		},
		{
			"buffer":0,
			"byteLength":5016,
			"byteOffset":18964,
			"target":34962
		},
		{
			"buffer":0,
			"byteLength":3344,
			"byteOffset":23980,
			"target":34962
		},
		{
			"buffer":0,
			"byteLength":1272,
			"byteOffset":27324,
			"target":34963
		},
		{
			"buffer":0,
			"byteLength":1680,
			"byteOffset":28596,
			"target":34962
		},
		{
			"buffer":0,
			"byteLength":1680,
			"byteOffset":30276,
			"target":34962
		},
		{
			"buffer":0,
			"byteLength":1120,
			"byteOffset":31956,
			"target":34962
		},
		{
			"buffer":0,
			"byteLength":432,
			"byteOffset":33076,
			"target":34963
		},
		{
			"buffer":0,
			"byteLength":216,
			"byteOffset":33508,
			"target":34962
		},
		{
			"buffer":0,
			"byteLength":216,
			"byteOffset":33724,
			"target":34962
		},
		{
			"buffer":0,
			"byteLength":144,
			"byteOffset":33940,
			"target":34962
		},
		{
			"buffer":0,
			"byteLength":48,
			"byteOffset":34084,
			"target":34963
		},
		{
			"buffer":0,
			"byteLength":216,
			"byteOffset":34132,
			"target":34962
		},
		{
			"buffer":0,
			"byteLength":216,
			"byteOffset":34348,
			"target":34962
		},
		{
			"buffer":0,
			"byteLength":144,
			"byteOffset":34564,
			"target":34962
		},
		{
			"buffer":0,
			"byteLength":576,
			"byteOffset":34708,
			"target":34962
		},
		{
			"buffer":0,
			"byteLength":576,
			"byteOffset":35284,
			"target":34962
		},
		{
			"buffer":0,
			"byteLength":384,
			"byteOffset":35860,
			"target":34962
		},
		{
			"buffer":0,
			"byteLength":168,
			"byteOffset":36244,
			"target":34963
		},
		{
			"buffer":0,
			"byteLength":3216,
			"byteOffset":36412,
			"target":34962
		},
		{
			"buffer":0,
			"byteLength":3216,
			"byteOffset":39628,
			"target":34962
		},
		{
			"buffer":0,
			"byteLength":2144,
			"byteOffset":42844,
			"target":34962
		},
		{
			"buffer":0,
			"byteLength":816,
			"byteOffset":44988,
			"target":34963
		},
		{
			"buffer":0,
			"byteLength":360,
			"byteOffset":45804,
			"target":34962
		},
		{
			"buffer":0,
			"byteLength":360,
			"byteOffset":46164,
			"target":34962
		},
		{
			"buffer":0,
			"byteLength":240,
			"byteOffset":46524,
			"target":34962
		},
		{
			"buffer":0,
			"byteLength":96,
			"byteOffset":46764,
			"target":34963
		},
		{
			"buffer":0,
			"byteLength":3744,
			"byteOffset":46860,
			"target":34962
		},
		{
			"buffer":0,
			"byteLength":3744,
			"byteOffset":50604,
			"target":34962
		},
		{
			"buffer":0,
			"byteLength":2496,
			"byteOffset":54348,
			"target":34962
		},
		{
			"buffer":0,
			"byteLength":1128,
			"byteOffset":56844,
			"target":34963
		},
		{
			"buffer":0,
			"byteLength":720,
			"byteOffset":57972,
			"target":34962
		},
		{
			"buffer":0,
			"byteLength":720,
			"byteOffset":58692,
			"target":34962
		},
		{
			"buffer":0,
			"byteLength":480,
			"byteOffset":59412,
			"target":34962
		},
		{
			"buffer":0,
			"byteLength":192,
			"byteOffset":59892,
			"target":34963
		},
		{
			"buffer":0,
			"byteLength":1584,
			"byteOffset":60084,
			"target":34962
		},
		{
			"buffer":0,
			"byteLength":1584,
			"byteOffset":61668,
			"target":34962
		},
		{
			"buffer":0,
			"byteLength":1056,
			"byteOffset":63252,
			"target":34962
		},
		{
			"buffer":0,
			"byteLength":408,
			"byteOffset":64308,
			"target":34963
		}
	],
	"buffers":[
		{
			"byteLength":64716,
			"uri":"fireplace.bin"
		}
	]
}
