{
	"asset":{
		"generator":"Khronos glTF Blender I/O v4.4.56",
		"version":"2.0"
	},
	"extensionsUsed":[
		"KHR_materials_specular"
	],
	"scene":0,
	"scenes":[
		{
			"name":"Scene",
			"nodes":[
				0,
				1,
				2,
				3,
				4,
				5,
				6,
				7,
				8,
				9,
				10,
				11,
				12,
				13,
				14,
				15,
				16,
				17,
				18,
				19,
				20,
				21,
				22,
				23,
				24,
				25,
				26,
				27,
				28,
				29,
				30,
				31,
				32,
				33,
				34,
				35,
				36,
				37,
				38,
				39,
				40,
				41,
				42,
				43,
				44,
				45,
				46,
				47,
				48,
				49,
				50,
				51,
				52,
				53,
				54,
				55,
				56,
				57,
				58,
				59,
				60,
				61,
				62
			]
		}
	],
	"nodes":[
		{
			"mesh":0,
			"name":"ground",
			"scale":[
				-14.577672004699707,
				-14.577672004699707,
				-14.577672004699707
			],
			"translation":[
				4.7699761390686035,
				3.842820167541504,
				0
			]
		},
		{
			"mesh":1,
			"name":"Cube.007",
			"rotation":[
				0.013581834733486176,
				0.18362677097320557,
				-0.0004742336750496179,
				0.9829021096229553
			],
			"scale":[
				0.03580883517861366,
				0.1737069934606552,
				1.5885920524597168
			],
			"translation":[
				-4.9968438148498535,
				7.898320198059082,
				8.87746810913086
			]
		},
		{
			"mesh":2,
			"name":"Cylinder.001",
			"rotation":[
				0,
				-0.16925041377544403,
				0,
				0.9855731129646301
			],
			"scale":[
				0.11284628510475159,
				1.6561570167541504,
				0.11284628510475159
			],
			"translation":[
				-6.436885833740234,
				6.250452041625977,
				-9.360108375549316
			]
		},
		{
			"mesh":3,
			"name":"Plane.006",
			"rotation":[
				0.4956508278846741,
				0.4975617229938507,
				-0.5048581957817078,
				0.5018773078918457
			],
			"scale":[
				0.37161239981651306,
				0.8121101260185242,
				2.0946617126464844
			],
			"translation":[
				-8.742570877075195,
				5.802544593811035,
				3.7325961589813232
			]
		},
		{
			"mesh":4,
			"name":"Plane.009",
			"rotation":[
				-0.014341733418405056,
				-0.02181551232933998,
				-0.7074431777000427,
				0.7062879204750061
			],
			"scale":[
				0.1006060242652893,
				1,
				3.290043354034424
			],
			"translation":[
				-8.66476821899414,
				4.624018669128418,
				-1.7862588167190552
			]
		},
		{
			"mesh":5,
			"name":"Cube.018",
			"scale":[
				0.25241339206695557,
				6.327042579650879,
				0.14576435089111328
			],
			"translation":[
				-2.916429042816162,
				10.028367042541504,
				-11.661308288574219
			]
		},
		{
			"mesh":6,
			"name":"Cube.024",
			"rotation":[
				-0.5937171578407288,
				0.25454777479171753,
				-0.6927341222763062,
				0.320663183927536
			],
			"scale":[
				0.43261024355888367,
				4.165399551391602,
				0.14658032357692719
			],
			"translation":[
				-10.257119178771973,
				15.2014741897583,
				-3.3603997230529785
			]
		},
		{
			"mesh":7,
			"name":"Cube.029",
			"scale":[
				6.154574871063232,
				0.4423938989639282,
				1
			],
			"translation":[
				14.032044410705566,
				6.07740592956543,
				-17.71843147277832
			]
		},
		{
			"mesh":8,
			"name":"Cube.028",
			"scale":[
				6.275600910186768,
				2.4069020748138428,
				1
			],
			"translation":[
				14.654550552368164,
				5.986572265625,
				-22.938928604125977
			]
		},
		{
			"mesh":9,
			"name":"Cylinder.002",
			"rotation":[
				0,
				0,
				-0.03397982567548752,
				0.9994226098060608
			],
			"scale":[
				0.14921630918979645,
				0.0498313382267952,
				0.14921629428863525
			],
			"translation":[
				-3.816671133041382,
				3.903118133544922,
				16.745908737182617
			]
		},
		{
			"mesh":10,
			"name":"Cube.003",
			"rotation":[
				0,
				-0.18927332758903503,
				0,
				0.9819244146347046
			],
			"scale":[
				0.12611345946788788,
				1.2488718032836914,
				0.15419930219650269
			],
			"translation":[
				2.0679290294647217,
				4.843575954437256,
				16.233705520629883
			]
		},
		{
			"mesh":11,
			"name":"Cube.035",
			"rotation":[
				0,
				0.7071068286895752,
				0,
				0.7071068286895752
			],
			"scale":[
				1.8575222492218018,
				0.051910150796175,
				0.051910150796175
			],
			"translation":[
				2.522535800933838,
				8.533811569213867,
				17.25974464416504
			]
		},
		{
			"mesh":12,
			"name":"Cube.039",
			"rotation":[
				0,
				-0.18927332758903503,
				0,
				0.9819244146347046
			],
			"scale":[
				2.7545547485351562,
				1,
				2.0040476322174072
			],
			"translation":[
				2.549306869506836,
				8.094587326049805,
				14.915342330932617
			]
		},
		{
			"mesh":13,
			"name":"Cube.004",
			"rotation":[
				0,
				0.16228227317333221,
				0,
				0.9867444038391113
			],
			"scale":[
				0.12611345946788788,
				1.2488718032836914,
				0.15419930219650269
			],
			"translation":[
				18.93470001220703,
				4.843575954437256,
				17.114593505859375
			]
		},
		{
			"mesh":14,
			"name":"Cube.033",
			"rotation":[
				0,
				0.16228227317333221,
				0,
				0.9867444038391113
			],
			"scale":[
				2.7545547485351562,
				1,
				2.0040476322174072
			],
			"translation":[
				19.255897521972656,
				9.432952880859375,
				18.194622039794922
			]
		},
		{
			"mesh":15,
			"name":"Cube.034",
			"rotation":[
				0.005260599311441183,
				-0.04924027621746063,
				-0.05314073711633682,
				0.997358500957489
			],
			"scale":[
				0.12611345946788788,
				1.2488718032836914,
				0.15419930219650269
			],
			"translation":[
				10.321626663208008,
				4.573044776916504,
				18.92926597595215
			]
		},
		{
			"mesh":16,
			"name":"Cube.036",
			"rotation":[
				0,
				-0.7637138962745667,
				0,
				0.6455549001693726
			],
			"scale":[
				3.390098810195923,
				6.635335922241211,
				3.390098810195923
			],
			"translation":[
				-13.617563247680664,
				9.655686378479004,
				19.162607192993164
			]
		},
		{
			"mesh":17,
			"name":"Cube.046",
			"rotation":[
				0,
				0.2666291892528534,
				0,
				0.9637991786003113
			],
			"scale":[
				9.39084243774414,
				6.941784381866455,
				3.3512160778045654
			],
			"translation":[
				0.7985250949859619,
				14.001322746276855,
				-39.977989196777344
			]
		},
		{
			"mesh":18,
			"name":"Cylinder.003",
			"scale":[
				3.890411853790283,
				15.034966468811035,
				3.890411853790283
			],
			"translation":[
				0.9219088554382324,
				20.367755889892578,
				-38.69520950317383
			]
		},
		{
			"mesh":19,
			"name":"Cube.048",
			"rotation":[
				0,
				-0.820054829120636,
				0,
				0.572284996509552
			],
			"scale":[
				3.9789485931396484,
				2.706998109817505,
				2.2884771823883057
			],
			"translation":[
				-28.469005584716797,
				6.634507179260254,
				-7.0095672607421875
			]
		},
		{
			"mesh":20,
			"name":"Cube.049",
			"rotation":[
				0,
				-0.5492788553237915,
				0,
				0.835639238357544
			],
			"scale":[
				3.9789490699768066,
				3.3940622806549072,
				2.2884774208068848
			],
			"translation":[
				-33.07768249511719,
				6.550725936889648,
				3.5489718914031982
			]
		},
		{
			"mesh":21,
			"name":"Cube.001",
			"rotation":[
				0,
				-0.27410978078842163,
				0,
				0.9616984128952026
			],
			"scale":[
				0.11865953356027603,
				1.1750576496124268,
				0.1450853794813156
			],
			"translation":[
				14.42439079284668,
				4.646597862243652,
				30.571226119995117
			]
		},
		{
			"mesh":22,
			"name":"Plane.001",
			"scale":[
				1.6013413667678833,
				1.8350375890731812,
				1.6013413667678833
			],
			"translation":[
				13.439797401428223,
				3.945378065109253,
				19.52754783630371
			]
		},
		{
			"mesh":23,
			"name":"Plane.002",
			"rotation":[
				0,
				-0.21392406523227692,
				0,
				0.9768503904342651
			],
			"scale":[
				2.5756759643554688,
				1.8350375890731812,
				2.4235005378723145
			],
			"translation":[
				2.5899713039398193,
				3.945378065109253,
				26.059715270996094
			]
		},
		{
			"mesh":24,
			"name":"Cube.010",
			"rotation":[
				0,
				-0.3246217966079712,
				0,
				0.9458438754081726
			],
			"scale":[
				5.878763675689697,
				5.014612674713135,
				3.381148338317871
			],
			"translation":[
				-20.8785400390625,
				6.550725936889648,
				46.67172622680664
			]
		},
		{
			"mesh":25,
			"name":"Cube.011",
			"rotation":[
				0.011099090799689293,
				0.013276254758238792,
				0.0061850231140851974,
				0.9998311400413513
			],
			"scale":[
				13.562097549438477,
				6.541985511779785,
				4.044036865234375
			],
			"translation":[
				0.11999033391475677,
				9.34247875213623,
				51.44036102294922
			]
		},
		{
			"mesh":26,
			"name":"Cube.012",
			"scale":[
				4.512646198272705,
				4.512646198272705,
				4.512646198272705
			],
			"translation":[
				24.584766387939453,
				7.5340166091918945,
				-24.212459564208984
			]
		},
		{
			"mesh":27,
			"name":"Cube.074",
			"rotation":[
				-0.0036279235500842333,
				0.04675011336803436,
				-0.005702541209757328,
				0.9988837242126465
			],
			"scale":[
				0.9718623757362366,
				0.6085726618766785,
				0.6085727214813232
			],
			"translation":[
				32.38993453979492,
				15.334184646606445,
				-22.380348205566406
			]
		},
		{
			"mesh":28,
			"name":"Cube.084",
			"scale":[
				0.6054831147193909,
				1.9010924100875854,
				0.7767390608787537
			],
			"translation":[
				19.236989974975586,
				9.802382469177246,
				-38.53213119506836
			]
		},
		{
			"mesh":29,
			"name":"Cylinder.009",
			"rotation":[
				-0.03363770619034767,
				0.32841750979423523,
				0.09617791324853897,
				0.9390209913253784
			],
			"scale":[
				5.2361159324646,
				1.3389396667480469,
				5.236115455627441
			],
			"translation":[
				54.718223571777344,
				0.9855359196662903,
				-11.293699264526367
			]
		},
		{
			"mesh":30,
			"name":"Plane.008",
			"scale":[
				47.75975799560547,
				47.75975799560547,
				47.75975799560547
			],
			"translation":[
				54.718223571777344,
				-0.09872996807098389,
				13.998213768005371
			]
		},
		{
			"mesh":31,
			"name":"Cube.097",
			"rotation":[
				-0.14293275773525238,
				0.27853307127952576,
				0.024586869403719902,
				0.949413001537323
			],
			"scale":[
				1.4945765733718872,
				0.802333414554596,
				0.802333414554596
			],
			"translation":[
				62.861148834228516,
				6.4910759925842285,
				30.394296646118164
			]
		},
		{
			"mesh":32,
			"name":"Cube.101",
			"rotation":[
				0.030913924798369408,
				-0.3710078001022339,
				-0.01460082083940506,
				0.9280002117156982
			],
			"scale":[
				1.1432689428329468,
				1.1432688236236572,
				1.1432689428329468
			],
			"translation":[
				69.06961059570312,
				1.5897104740142822,
				13.652090072631836
			]
		},
		{
			"mesh":33,
			"name":"Cube.102",
			"rotation":[
				-0.1039811372756958,
				-0.10315622389316559,
				-0.032050468027591705,
				0.9886958599090576
			],
			"scale":[
				1.1432689428329468,
				1.1432689428329468,
				1.1432688236236572
			],
			"translation":[
				66.94345092773438,
				1.1802563667297363,
				15.861597061157227
			]
		},
		{
			"mesh":34,
			"name":"Plane.020",
			"rotation":[
				0.04821218177676201,
				0.2023339867591858,
				0.3946276009082794,
				0.8949891924858093
			],
			"scale":[
				0.3561025857925415,
				0.6963205337524414,
				0.6454060673713684
			],
			"translation":[
				84.06890869140625,
				11.47111988067627,
				-10.734085083007812
			]
		},
		{
			"mesh":35,
			"name":"Cube.103",
			"rotation":[
				-0.07298427820205688,
				-0.7614473104476929,
				-0.020792294293642044,
				0.643769383430481
			],
			"scale":[
				1.1432688236236572,
				1.1432689428329468,
				1.1432689428329468
			],
			"translation":[
				26.852724075317383,
				4.322378158569336,
				24.180416107177734
			]
		},
		{
			"mesh":36,
			"name":"Cube.104",
			"rotation":[
				0,
				0.24439778923988342,
				0,
				0.9696750640869141
			],
			"translation":[
				63.0133171081543,
				0.04526960849761963,
				-3.178774833679199
			]
		},
		{
			"mesh":37,
			"name":"Cube.105",
			"rotation":[
				0,
				-0.11303085088729858,
				0,
				0.9935914874076843
			],
			"scale":[
				1.5093263387680054,
				2.873833656311035,
				1
			],
			"translation":[
				4.1685967445373535,
				6.525748252868652,
				35.402400970458984
			]
		},
		{
			"mesh":38,
			"name":"Cube.022",
			"rotation":[
				-0.789082407951355,
				0.005127591080963612,
				0.6081649661064148,
				0.0863603949546814
			],
			"scale":[
				0.09512887895107269,
				0.7580320835113525,
				0.09512888640165329
			],
			"translation":[
				21.42638397216797,
				4.749194622039795,
				-18.1279296875
			]
		},
		{
			"mesh":39,
			"name":"Cube.020",
			"rotation":[
				-0.009627417661249638,
				0.8960086107254028,
				0.005473663564771414,
				0.4438985586166382
			],
			"scale":[
				0.12310479581356049,
				0.9809576272964478,
				0.12310481816530228
			],
			"translation":[
				23.528175354003906,
				4.771328449249268,
				20.802461624145508
			]
		},
		{
			"mesh":40,
			"name":"Plane.007",
			"rotation":[
				0.050272438675165176,
				0.8490059971809387,
				0.03704774007201195,
				0.5246798992156982
			],
			"scale":[
				2.6093649864196777,
				2.9901700019836426,
				2.6093649864196777
			],
			"translation":[
				21.147777557373047,
				3.7978515625,
				16.885923385620117
			]
		},
		{
			"mesh":41,
			"name":"Plane.017",
			"rotation":[
				0.004581709858030081,
				-0.09991414844989777,
				-0.04557862505316734,
				0.993941068649292
			],
			"scale":[
				3.8490488529205322,
				3.8490488529205322,
				3.8490488529205322
			],
			"translation":[
				31.591211318969727,
				4.4320173263549805,
				17.487499237060547
			]
		},
		{
			"mesh":42,
			"name":"Plane.018",
			"rotation":[
				0.027017824351787567,
				-0.09885979443788528,
				-0.04782247915863991,
				0.9935843348503113
			],
			"scale":[
				3.8490488529205322,
				3.8490488529205322,
				3.8490488529205322
			],
			"translation":[
				-0.35597896575927734,
				5.057292938232422,
				14.965688705444336
			]
		},
		{
			"mesh":43,
			"name":"Plane.019",
			"rotation":[
				0.009641029872000217,
				-0.09955339878797531,
				0.004868464544415474,
				0.9949736595153809
			],
			"scale":[
				3.8490488529205322,
				3.8490488529205322,
				3.8490488529205322
			],
			"translation":[
				67.8407211303711,
				3.72261381149292,
				-12.017316818237305
			]
		},
		{
			"mesh":44,
			"name":"Plane.021",
			"rotation":[
				-0.010783885605633259,
				0.2351660430431366,
				-0.04452091082930565,
				0.9708751440048218
			],
			"scale":[
				3.8490488529205322,
				3.8490488529205322,
				3.8490488529205322
			],
			"translation":[
				-11.85744857788086,
				5.717606544494629,
				1.6813697814941406
			]
		},
		{
			"mesh":45,
			"name":"Plane.022",
			"rotation":[
				0.011045060120522976,
				-0.24086157977581024,
				-0.044456835836172104,
				0.9694778323173523
			],
			"scale":[
				3.8490488529205322,
				3.8490488529205322,
				3.8490488529205322
			],
			"translation":[
				31.591211318969727,
				5.19038200378418,
				-8.116008758544922
			]
		},
		{
			"mesh":46,
			"name":"Plane.023",
			"rotation":[
				-0.012773044407367706,
				0.20264478027820587,
				-0.028098588809370995,
				0.9787657856941223
			],
			"scale":[
				3.8490488529205322,
				3.849048614501953,
				3.8490488529205322
			],
			"translation":[
				61.51249694824219,
				3.243778944015503,
				32.74869155883789
			]
		},
		{
			"mesh":47,
			"name":"pngwing.com",
			"rotation":[
				0.5,
				0.5,
				-0.5,
				0.5
			],
			"scale":[
				127.84033966064453,
				43.98114013671875,
				58.17686080932617
			],
			"translation":[
				102.2891616821289,
				12.749077796936035,
				13.407381057739258
			]
		},
		{
			"mesh":48,
			"name":"pngwing.com (2)",
			"rotation":[
				0.5315016508102417,
				-0.46637535095214844,
				0.4663753807544708,
				0.5315016508102417
			],
			"scale":[
				3.5404694080352783,
				3.5404694080352783,
				3.5404696464538574
			],
			"translation":[
				71.52517700195312,
				2.2306437492370605,
				-0.9902464151382446
			]
		},
		{
			"mesh":49,
			"name":"pngwing.com (2).001",
			"rotation":[
				0.5536732077598572,
				-0.39641353487968445,
				0.43734216690063477,
				0.5873962044715881
			],
			"scale":[
				4.416882038116455,
				4.416882038116455,
				4.416882038116455
			],
			"translation":[
				70.91551971435547,
				3.029404878616333,
				-23.259477615356445
			]
		},
		{
			"mesh":50,
			"name":"pngwing.com (2).002",
			"rotation":[
				0.31538599729537964,
				-0.6328757405281067,
				0.6328757405281067,
				0.31538599729537964
			],
			"scale":[
				5.706732273101807,
				5.706732273101807,
				5.706733703613281
			],
			"translation":[
				56.517189025878906,
				1.912966012954712,
				27.09046173095703
			]
		},
		{
			"mesh":51,
			"name":"pngwing.com (2).003",
			"rotation":[
				0.31538599729537964,
				-0.6328757405281067,
				0.6328757405281067,
				0.31538599729537964
			],
			"scale":[
				5.706732273101807,
				5.706732273101807,
				5.706733703613281
			],
			"translation":[
				64.76940155029297,
				1.9104996919631958,
				27.7523136138916
			]
		},
		{
			"mesh":52,
			"name":"pngwing.com (1)",
			"rotation":[
				0.33716216683387756,
				-0.6215478181838989,
				0.6215478181838989,
				0.3371621370315552
			],
			"scale":[
				25.079713821411133,
				25.079713821411133,
				25.079713821411133
			],
			"translation":[
				97.72663879394531,
				9.61116886138916,
				13.05978012084961
			]
		},
		{
			"mesh":53,
			"name":"Plane.003",
			"rotation":[
				0.004581709858030081,
				-0.09991414844989777,
				-0.04557862505316734,
				0.993941068649292
			],
			"scale":[
				3.8490488529205322,
				3.8490488529205322,
				3.8490488529205322
			],
			"translation":[
				22.47179412841797,
				5.025458335876465,
				31.69346809387207
			]
		},
		{
			"mesh":54,
			"name":"Cube.005",
			"rotation":[
				0,
				-0.45757967233657837,
				0,
				0.8891686201095581
			],
			"scale":[
				1.6661685705184937,
				0.8509733080863953,
				0.9176141023635864
			],
			"translation":[
				18.09276008605957,
				4.433685302734375,
				23.510231018066406
			]
		},
		{
			"mesh":55,
			"name":"Plane",
			"rotation":[
				-0.40232932567596436,
				0.40232932567596436,
				-0.5814903974533081,
				0.5814904570579529
			],
			"scale":[
				0.8090528845787048,
				0.8090528845787048,
				0.521088719367981
			],
			"translation":[
				3.5569982528686523,
				5.719915390014648,
				16.55439567565918
			]
		},
		{
			"mesh":56,
			"name":"Cylinder.004",
			"scale":[
				0.5384944677352905,
				0.09415847808122635,
				0.5384944677352905
			],
			"translation":[
				4.361427307128906,
				4.625307083129883,
				19.61480712890625
			]
		},
		{
			"mesh":57,
			"name":"Cylinder.005",
			"rotation":[
				-0.690576434135437,
				0.1362457126379013,
				0.13748890161514282,
				0.6968774795532227
			],
			"scale":[
				0.208331897854805,
				0.2083318829536438,
				0.2083318829536438
			],
			"translation":[
				3.71063232421875,
				6.271826267242432,
				18.205347061157227
			]
		},
		{
			"mesh":58,
			"name":"Cube.006",
			"rotation":[
				0,
				-0.31886735558509827,
				0,
				0.9477993845939636
			],
			"scale":[
				0.11867057532072067,
				0.11867057532072067,
				0.11867057532072067
			],
			"translation":[
				4.061425685882568,
				6.253968238830566,
				17.801246643066406
			]
		},
		{
			"mesh":59,
			"name":"Cylinder.007",
			"rotation":[
				0.03289667144417763,
				0.32692191004753113,
				0.021257340908050537,
				0.9442393779754639
			],
			"scale":[
				0.5140813589096069,
				0.08988972753286362,
				0.5140814781188965
			],
			"translation":[
				17.363975524902344,
				4.714978218078613,
				33.07489776611328
			]
		},
		{
			"mesh":60,
			"name":"Cube.008",
			"rotation":[
				0,
				0.295497328042984,
				0,
				0.9553436636924744
			],
			"scale":[
				0.09050150960683823,
				0.09050149470567703,
				0.09050150960683823
			],
			"translation":[
				3.8262393474578857,
				6.199688911437988,
				17.593971252441406
			]
		},
		{
			"mesh":61,
			"name":"Cylinder.010",
			"rotation":[
				-0.24389569461345673,
				0.34974974393844604,
				-0.25130316615104675,
				0.8689284920692444
			],
			"scale":[
				0.7492963075637817,
				0.1310182511806488,
				0.7492965459823608
			],
			"translation":[
				58.40353012084961,
				1.1626709699630737,
				18.019887924194336
			]
		},
		{
			"mesh":62,
			"name":"Cylinder.006",
			"rotation":[
				-0.6893261075019836,
				0.2357860654592514,
				0.14505203068256378,
				0.6694731712341309
			],
			"scale":[
				0.5140813589096069,
				0.08988972753286362,
				0.5140814781188965
			],
			"translation":[
				17.363975524902344,
				4.306341648101807,
				31.093469619750977
			]
		}
	],
	"materials":[
		{
			"doubleSided":true,
			"extensions":{
				"KHR_materials_specular":{
					"specularFactor":0
				}
			},
			"name":"arena",
			"pbrMetallicRoughness":{
				"baseColorTexture":{
					"index":0
				},
				"metallicFactor":0,
				"roughnessFactor":0.5
			}
		},
		{
			"doubleSided":true,
			"extensions":{
				"KHR_materials_specular":{
					"specularFactor":0
				}
			},
			"name":"Arena2",
			"pbrMetallicRoughness":{
				"baseColorTexture":{
					"index":1
				},
				"metallicFactor":0,
				"roughnessFactor":0.5
			}
		},
		{
			"doubleSided":true,
			"extensions":{
				"KHR_materials_specular":{
					"specularFactor":0
				}
			},
			"name":"housez",
			"pbrMetallicRoughness":{
				"baseColorTexture":{
					"index":2
				},
				"metallicFactor":0,
				"roughnessFactor":0.5
			}
		},
		{
			"doubleSided":true,
			"name":"Swamp"
		},
		{
			"alphaMode":"BLEND",
			"doubleSided":true,
			"name":"pngwing.com",
			"pbrMetallicRoughness":{
				"baseColorTexture":{
					"index":3
				},
				"metallicFactor":0,
				"roughnessFactor":0.5
			}
		},
		{
			"alphaMode":"BLEND",
			"doubleSided":true,
			"name":"pngwing.com (2)",
			"pbrMetallicRoughness":{
				"baseColorTexture":{
					"index":4
				},
				"metallicFactor":0,
				"roughnessFactor":0.5
			}
		},
		{
			"alphaMode":"BLEND",
			"doubleSided":true,
			"name":"pngwing.com (1)",
			"pbrMetallicRoughness":{
				"baseColorTexture":{
					"index":5
				},
				"metallicFactor":0,
				"roughnessFactor":0.5
			}
		}
	],
	"meshes":[
		{
			"name":"Plane",
			"primitives":[
				{
					"attributes":{
						"POSITION":0,
						"NORMAL":1,
						"TEXCOORD_0":2
					},
					"indices":3,
					"material":0
				}
			]
		},
		{
			"name":"Cube.010",
			"primitives":[
				{
					"attributes":{
						"POSITION":4,
						"NORMAL":5,
						"TEXCOORD_0":6
					},
					"indices":7,
					"material":1
				}
			]
		},
		{
			"name":"Cylinder.001",
			"primitives":[
				{
					"attributes":{
						"POSITION":8,
						"NORMAL":9,
						"TEXCOORD_0":10
					},
					"indices":11,
					"material":0
				}
			]
		},
		{
			"name":"Plane.007",
			"primitives":[
				{
					"attributes":{
						"POSITION":12,
						"NORMAL":13,
						"TEXCOORD_0":14
					},
					"indices":15
				}
			]
		},
		{
			"name":"Plane.010",
			"primitives":[
				{
					"attributes":{
						"POSITION":16,
						"NORMAL":17,
						"TEXCOORD_0":18
					},
					"indices":19,
					"material":0
				}
			]
		},
		{
			"name":"Cube.021",
			"primitives":[
				{
					"attributes":{
						"POSITION":20,
						"NORMAL":21,
						"TEXCOORD_0":22
					},
					"indices":23,
					"material":0
				},
				{
					"attributes":{
						"POSITION":24,
						"NORMAL":25,
						"TEXCOORD_0":26
					},
					"indices":27,
					"material":1
				}
			]
		},
		{
			"name":"Cube.027",
			"primitives":[
				{
					"attributes":{
						"POSITION":28,
						"NORMAL":29,
						"TEXCOORD_0":30
					},
					"indices":31,
					"material":0
				}
			]
		},
		{
			"name":"Cube.034",
			"primitives":[
				{
					"attributes":{
						"POSITION":32,
						"NORMAL":33,
						"TEXCOORD_0":34
					},
					"indices":35,
					"material":0
				}
			]
		},
		{
			"name":"Cube.035",
			"primitives":[
				{
					"attributes":{
						"POSITION":36,
						"NORMAL":37,
						"TEXCOORD_0":38
					},
					"indices":39,
					"material":0
				}
			]
		},
		{
			"name":"Cylinder.017",
			"primitives":[
				{
					"attributes":{
						"POSITION":40,
						"NORMAL":41,
						"TEXCOORD_0":42
					},
					"indices":43,
					"material":1
				}
			]
		},
		{
			"name":"Cube.047",
			"primitives":[
				{
					"attributes":{
						"POSITION":44,
						"NORMAL":45,
						"TEXCOORD_0":46
					},
					"indices":47,
					"material":1
				}
			]
		},
		{
			"name":"Cube.051",
			"primitives":[
				{
					"attributes":{
						"POSITION":48,
						"NORMAL":49,
						"TEXCOORD_0":50
					},
					"indices":51
				}
			]
		},
		{
			"name":"Cube.055",
			"primitives":[
				{
					"attributes":{
						"POSITION":52,
						"NORMAL":53,
						"TEXCOORD_0":54
					},
					"indices":55,
					"material":0
				}
			]
		},
		{
			"name":"Cube.058",
			"primitives":[
				{
					"attributes":{
						"POSITION":56,
						"NORMAL":57,
						"TEXCOORD_0":58
					},
					"indices":59,
					"material":1
				}
			]
		},
		{
			"name":"Cube.059",
			"primitives":[
				{
					"attributes":{
						"POSITION":60,
						"NORMAL":61,
						"TEXCOORD_0":62
					},
					"indices":63,
					"material":1
				}
			]
		},
		{
			"name":"Cube.060",
			"primitives":[
				{
					"attributes":{
						"POSITION":64,
						"NORMAL":65,
						"TEXCOORD_0":66
					},
					"indices":67,
					"material":1
				}
			]
		},
		{
			"name":"Cube.061",
			"primitives":[
				{
					"attributes":{
						"POSITION":68,
						"NORMAL":69,
						"TEXCOORD_0":70
					},
					"indices":71,
					"material":1
				}
			]
		},
		{
			"name":"Cube.103",
			"primitives":[
				{
					"attributes":{
						"POSITION":72,
						"NORMAL":73,
						"TEXCOORD_0":74
					},
					"indices":75,
					"material":0
				},
				{
					"attributes":{
						"POSITION":76,
						"NORMAL":77,
						"TEXCOORD_0":78
					},
					"indices":79
				}
			]
		},
		{
			"name":"Cylinder.019",
			"primitives":[
				{
					"attributes":{
						"POSITION":80,
						"NORMAL":81,
						"TEXCOORD_0":82
					},
					"indices":83,
					"material":0
				}
			]
		},
		{
			"name":"Cube.105",
			"primitives":[
				{
					"attributes":{
						"POSITION":84,
						"NORMAL":85,
						"TEXCOORD_0":86
					},
					"indices":87,
					"material":2
				}
			]
		},
		{
			"name":"Cube.106",
			"primitives":[
				{
					"attributes":{
						"POSITION":88,
						"NORMAL":89,
						"TEXCOORD_0":90
					},
					"indices":91,
					"material":2
				}
			]
		},
		{
			"name":"Cube.110",
			"primitives":[
				{
					"attributes":{
						"POSITION":92,
						"NORMAL":93,
						"TEXCOORD_0":94
					},
					"indices":95,
					"material":1
				}
			]
		},
		{
			"name":"Plane.019",
			"primitives":[
				{
					"attributes":{
						"POSITION":96,
						"NORMAL":97,
						"TEXCOORD_0":98
					},
					"indices":99,
					"material":0
				}
			]
		},
		{
			"name":"Plane.020",
			"primitives":[
				{
					"attributes":{
						"POSITION":100,
						"NORMAL":101,
						"TEXCOORD_0":102
					},
					"indices":103,
					"material":0
				}
			]
		},
		{
			"name":"Cube.001",
			"primitives":[
				{
					"attributes":{
						"POSITION":104,
						"NORMAL":105,
						"TEXCOORD_0":106
					},
					"indices":107,
					"material":2
				}
			]
		},
		{
			"name":"Cube.002",
			"primitives":[
				{
					"attributes":{
						"POSITION":108,
						"NORMAL":109,
						"TEXCOORD_0":110
					},
					"indices":111,
					"material":0
				}
			]
		},
		{
			"name":"Cube.004",
			"primitives":[
				{
					"attributes":{
						"POSITION":112,
						"NORMAL":113,
						"TEXCOORD_0":114
					},
					"indices":115,
					"material":0
				}
			]
		},
		{
			"name":"Cube.049",
			"primitives":[
				{
					"attributes":{
						"POSITION":116,
						"NORMAL":117,
						"TEXCOORD_0":118
					},
					"indices":119,
					"material":0
				}
			]
		},
		{
			"name":"Cube.078",
			"primitives":[
				{
					"attributes":{
						"POSITION":120,
						"NORMAL":121,
						"TEXCOORD_0":122
					},
					"indices":123,
					"material":0
				}
			]
		},
		{
			"name":"Cylinder.002",
			"primitives":[
				{
					"attributes":{
						"POSITION":124,
						"NORMAL":125,
						"TEXCOORD_0":126
					},
					"indices":127,
					"material":0
				}
			]
		},
		{
			"name":"Plane.009",
			"primitives":[
				{
					"attributes":{
						"POSITION":128,
						"NORMAL":129,
						"TEXCOORD_0":130
					},
					"indices":131,
					"material":3
				}
			]
		},
		{
			"name":"Cube.122",
			"primitives":[
				{
					"attributes":{
						"POSITION":132,
						"NORMAL":133,
						"TEXCOORD_0":134
					},
					"indices":135,
					"material":0
				}
			]
		},
		{
			"name":"Cube.126",
			"primitives":[
				{
					"attributes":{
						"POSITION":136,
						"NORMAL":137,
						"TEXCOORD_0":138
					},
					"indices":139,
					"material":1
				}
			]
		},
		{
			"name":"Cube.127",
			"primitives":[
				{
					"attributes":{
						"POSITION":140,
						"NORMAL":141,
						"TEXCOORD_0":142
					},
					"indices":143,
					"material":1
				}
			]
		},
		{
			"name":"Plane.024",
			"primitives":[
				{
					"attributes":{
						"POSITION":144,
						"NORMAL":145,
						"TEXCOORD_0":146
					},
					"indices":147,
					"material":0
				}
			]
		},
		{
			"name":"Cube.137",
			"primitives":[
				{
					"attributes":{
						"POSITION":148,
						"NORMAL":149,
						"TEXCOORD_0":150
					},
					"indices":143,
					"material":1
				}
			]
		},
		{
			"name":"Cube.138",
			"primitives":[
				{
					"attributes":{
						"POSITION":151,
						"NORMAL":152,
						"TEXCOORD_0":153
					},
					"indices":154,
					"material":0
				}
			]
		},
		{
			"name":"Cube.140",
			"primitives":[
				{
					"attributes":{
						"POSITION":155,
						"NORMAL":156,
						"TEXCOORD_0":157
					},
					"indices":158,
					"material":0
				}
			]
		},
		{
			"name":"Cube.158",
			"primitives":[
				{
					"attributes":{
						"POSITION":159,
						"NORMAL":160,
						"TEXCOORD_0":161
					},
					"indices":162,
					"material":0
				}
			]
		},
		{
			"name":"Cube.161",
			"primitives":[
				{
					"attributes":{
						"POSITION":163,
						"NORMAL":164,
						"TEXCOORD_0":165
					},
					"indices":162,
					"material":1
				}
			]
		},
		{
			"name":"Plane.031",
			"primitives":[
				{
					"attributes":{
						"POSITION":166,
						"NORMAL":167,
						"TEXCOORD_0":168
					},
					"indices":99,
					"material":0
				}
			]
		},
		{
			"name":"Plane.004",
			"primitives":[
				{
					"attributes":{
						"POSITION":169,
						"NORMAL":170,
						"TEXCOORD_0":171
					},
					"indices":172,
					"material":0
				}
			]
		},
		{
			"name":"Plane.005",
			"primitives":[
				{
					"attributes":{
						"POSITION":173,
						"NORMAL":174,
						"TEXCOORD_0":175
					},
					"indices":172,
					"material":0
				}
			]
		},
		{
			"name":"Plane.006",
			"primitives":[
				{
					"attributes":{
						"POSITION":176,
						"NORMAL":177,
						"TEXCOORD_0":178
					},
					"indices":172,
					"material":0
				}
			]
		},
		{
			"name":"Plane.008",
			"primitives":[
				{
					"attributes":{
						"POSITION":179,
						"NORMAL":180,
						"TEXCOORD_0":181
					},
					"indices":172,
					"material":0
				}
			]
		},
		{
			"name":"Plane.011",
			"primitives":[
				{
					"attributes":{
						"POSITION":182,
						"NORMAL":183,
						"TEXCOORD_0":184
					},
					"indices":172,
					"material":0
				}
			]
		},
		{
			"name":"Plane.012",
			"primitives":[
				{
					"attributes":{
						"POSITION":185,
						"NORMAL":186,
						"TEXCOORD_0":187
					},
					"indices":188,
					"material":0
				}
			]
		},
		{
			"name":"pngwing.com",
			"primitives":[
				{
					"attributes":{
						"POSITION":189,
						"NORMAL":190,
						"TEXCOORD_0":191
					},
					"indices":131,
					"material":4
				}
			]
		},
		{
			"name":"pngwing.com (2)",
			"primitives":[
				{
					"attributes":{
						"POSITION":192,
						"NORMAL":193,
						"TEXCOORD_0":194
					},
					"indices":131,
					"material":5
				}
			]
		},
		{
			"name":"pngwing.com (2).001",
			"primitives":[
				{
					"attributes":{
						"POSITION":195,
						"NORMAL":196,
						"TEXCOORD_0":197
					},
					"indices":131,
					"material":5
				}
			]
		},
		{
			"name":"pngwing.com (2).002",
			"primitives":[
				{
					"attributes":{
						"POSITION":198,
						"NORMAL":199,
						"TEXCOORD_0":200
					},
					"indices":131,
					"material":5
				}
			]
		},
		{
			"name":"pngwing.com (2).003",
			"primitives":[
				{
					"attributes":{
						"POSITION":201,
						"NORMAL":202,
						"TEXCOORD_0":203
					},
					"indices":131,
					"material":5
				}
			]
		},
		{
			"name":"pngwing.com (1)",
			"primitives":[
				{
					"attributes":{
						"POSITION":204,
						"NORMAL":205,
						"TEXCOORD_0":206
					},
					"indices":131,
					"material":6
				}
			]
		},
		{
			"name":"Plane.013",
			"primitives":[
				{
					"attributes":{
						"POSITION":207,
						"NORMAL":208,
						"TEXCOORD_0":209
					},
					"indices":172,
					"material":0
				}
			]
		},
		{
			"name":"Cube.111",
			"primitives":[
				{
					"attributes":{
						"POSITION":210,
						"NORMAL":211,
						"TEXCOORD_0":212
					},
					"indices":213,
					"material":1
				}
			]
		},
		{
			"name":"Plane.018",
			"primitives":[
				{
					"attributes":{
						"POSITION":214,
						"NORMAL":215,
						"TEXCOORD_0":216
					},
					"indices":217,
					"material":1
				}
			]
		},
		{
			"name":"Cylinder.023",
			"primitives":[
				{
					"attributes":{
						"POSITION":218,
						"NORMAL":219,
						"TEXCOORD_0":220
					},
					"indices":221,
					"material":1
				}
			]
		},
		{
			"name":"Cylinder.024",
			"primitives":[
				{
					"attributes":{
						"POSITION":222,
						"NORMAL":223,
						"TEXCOORD_0":224
					},
					"indices":225
				}
			]
		},
		{
			"name":"Cube.112",
			"primitives":[
				{
					"attributes":{
						"POSITION":226,
						"NORMAL":227,
						"TEXCOORD_0":228
					},
					"indices":229
				}
			]
		},
		{
			"name":"Cylinder.026",
			"primitives":[
				{
					"attributes":{
						"POSITION":230,
						"NORMAL":231,
						"TEXCOORD_0":232
					},
					"indices":233,
					"material":1
				}
			]
		},
		{
			"name":"Cube.115",
			"primitives":[
				{
					"attributes":{
						"POSITION":234,
						"NORMAL":235,
						"TEXCOORD_0":236
					},
					"indices":229
				}
			]
		},
		{
			"name":"Cylinder.004",
			"primitives":[
				{
					"attributes":{
						"POSITION":237,
						"NORMAL":238,
						"TEXCOORD_0":239
					},
					"indices":240,
					"material":1
				}
			]
		},
		{
			"name":"Cylinder.003",
			"primitives":[
				{
					"attributes":{
						"POSITION":241,
						"NORMAL":242,
						"TEXCOORD_0":243
					},
					"indices":244,
					"material":1
				}
			]
		}
	],
	"textures":[
		{
			"sampler":0,
			"source":0
		},
		{
			"sampler":0,
			"source":1
		},
		{
			"sampler":0,
			"source":2
		},
		{
			"sampler":1,
			"source":3
		},
		{
			"sampler":1,
			"source":4
		},
		{
			"sampler":1,
			"source":5
		}
	],
	"images":[
		{
			"mimeType":"image/png",
			"name":"arena",
			"uri":"arena.png"
		},
		{
			"mimeType":"image/png",
			"name":"Arena2",
			"uri":"Arena2.png"
		},
		{
			"mimeType":"image/jpeg",
			"name":"pngtree-wall-of-medieval-timber-framing-house-in-troyes-france-picture-image_15575608",
			"uri":"pngtree-wall-of-medieval-timber-framing-house-in-troyes-france-picture-image_15575608.jpg"
		},
		{
			"mimeType":"image/png",
			"name":"pngwing.com.png",
			"uri":"pngwing_com_png.png"
		},
		{
			"mimeType":"image/png",
			"name":"pngwing.com (2)",
			"uri":"pngwing_com%202.png"
		},
		{
			"mimeType":"image/png",
			"name":"pngwing.com (1)",
			"uri":"pngwing_com%201.png"
		}
	],
	"accessors":[
		{
			"bufferView":0,
			"componentType":5126,
			"count":1170,
			"max":[
				2.9993081092834473,
				0.5775216817855835,
				1.4758470058441162
			],
			"min":[
				-5.478629112243652,
				0,
				-3.4351234436035156
			],
			"type":"VEC3"
		},
		{
			"bufferView":1,
			"componentType":5126,
			"count":1170,
			"type":"VEC3"
		},
		{
			"bufferView":2,
			"componentType":5126,
			"count":1170,
			"type":"VEC2"
		},
		{
			"bufferView":3,
			"componentType":5123,
			"count":6480,
			"type":"SCALAR"
		},
		{
			"bufferView":4,
			"componentType":5126,
			"count":875,
			"max":[
				16.040817260742188,
				94.31317138671875,
				1.840301275253296
			],
			"min":[
				-243.728759765625,
				-27.68310546875,
				-4.571111679077148
			],
			"type":"VEC3"
		},
		{
			"bufferView":5,
			"componentType":5126,
			"count":875,
			"type":"VEC3"
		},
		{
			"bufferView":6,
			"componentType":5126,
			"count":875,
			"type":"VEC2"
		},
		{
			"bufferView":7,
			"componentType":5123,
			"count":1410,
			"type":"SCALAR"
		},
		{
			"bufferView":8,
			"componentType":5126,
			"count":1041,
			"max":[
				9.03436279296875,
				10.404314041137695,
				166.26593017578125
			],
			"min":[
				-60.82551574707031,
				-1.5832085609436035,
				-23.98413848876953
			],
			"type":"VEC3"
		},
		{
			"bufferView":9,
			"componentType":5126,
			"count":1041,
			"type":"VEC3"
		},
		{
			"bufferView":10,
			"componentType":5126,
			"count":1041,
			"type":"VEC2"
		},
		{
			"bufferView":11,
			"componentType":5123,
			"count":1758,
			"type":"SCALAR"
		},
		{
			"bufferView":12,
			"componentType":5126,
			"count":6,
			"max":[
				1,
				0,
				1
			],
			"min":[
				-1,
				-5.526181467985225e-08,
				-1.3511916399002075
			],
			"type":"VEC3"
		},
		{
			"bufferView":13,
			"componentType":5126,
			"count":6,
			"type":"VEC3"
		},
		{
			"bufferView":14,
			"componentType":5126,
			"count":6,
			"type":"VEC2"
		},
		{
			"bufferView":15,
			"componentType":5123,
			"count":12,
			"type":"SCALAR"
		},
		{
			"bufferView":16,
			"componentType":5126,
			"count":59,
			"max":[
				10.882004737854004,
				0.030932262539863586,
				1.1129463911056519
			],
			"min":[
				-42.44995880126953,
				-0.12108325958251953,
				-1.119708776473999
			],
			"type":"VEC3"
		},
		{
			"bufferView":17,
			"componentType":5126,
			"count":59,
			"type":"VEC3"
		},
		{
			"bufferView":18,
			"componentType":5126,
			"count":59,
			"type":"VEC2"
		},
		{
			"bufferView":19,
			"componentType":5123,
			"count":111,
			"type":"SCALAR"
		},
		{
			"bufferView":20,
			"componentType":5126,
			"count":1230,
			"max":[
				45.12551498413086,
				1.906300663948059,
				19.388198852539062
			],
			"min":[
				-27.062665939331055,
				-1.1076289415359497,
				-137.3394317626953
			],
			"type":"VEC3"
		},
		{
			"bufferView":21,
			"componentType":5126,
			"count":1230,
			"type":"VEC3"
		},
		{
			"bufferView":22,
			"componentType":5126,
			"count":1230,
			"type":"VEC2"
		},
		{
			"bufferView":23,
			"componentType":5123,
			"count":2076,
			"type":"SCALAR"
		},
		{
			"bufferView":24,
			"componentType":5126,
			"count":24,
			"max":[
				40.58363342285156,
				1.5188848972320557,
				19.388198852539062
			],
			"min":[
				5.46246337890625,
				-1.0054055452346802,
				-2.1172828674316406
			],
			"type":"VEC3"
		},
		{
			"bufferView":25,
			"componentType":5126,
			"count":24,
			"type":"VEC3"
		},
		{
			"bufferView":26,
			"componentType":5126,
			"count":24,
			"type":"VEC2"
		},
		{
			"bufferView":27,
			"componentType":5123,
			"count":36,
			"type":"SCALAR"
		},
		{
			"bufferView":28,
			"componentType":5126,
			"count":48,
			"max":[
				21.18234634399414,
				1.1555355787277222,
				7.8210649490356445
			],
			"min":[
				-1,
				-1.575210452079773,
				-8.486393928527832
			],
			"type":"VEC3"
		},
		{
			"bufferView":29,
			"componentType":5126,
			"count":48,
			"type":"VEC3"
		},
		{
			"bufferView":30,
			"componentType":5126,
			"count":48,
			"type":"VEC2"
		},
		{
			"bufferView":31,
			"componentType":5123,
			"count":72,
			"type":"SCALAR"
		},
		{
			"bufferView":32,
			"componentType":5126,
			"count":1166,
			"max":[
				1,
				4.469507694244385,
				6.137474060058594
			],
			"min":[
				-1,
				-9.968026161193848,
				-4.4032158851623535
			],
			"type":"VEC3"
		},
		{
			"bufferView":33,
			"componentType":5126,
			"count":1166,
			"type":"VEC3"
		},
		{
			"bufferView":34,
			"componentType":5126,
			"count":1166,
			"type":"VEC2"
		},
		{
			"bufferView":35,
			"componentType":5123,
			"count":1896,
			"type":"SCALAR"
		},
		{
			"bufferView":36,
			"componentType":5126,
			"count":48,
			"max":[
				1.8559174537658691,
				1,
				1
			],
			"min":[
				-1.2111177444458008,
				-1,
				-20.798789978027344
			],
			"type":"VEC3"
		},
		{
			"bufferView":37,
			"componentType":5126,
			"count":48,
			"type":"VEC3"
		},
		{
			"bufferView":38,
			"componentType":5126,
			"count":48,
			"type":"VEC2"
		},
		{
			"bufferView":39,
			"componentType":5123,
			"count":84,
			"type":"SCALAR"
		},
		{
			"bufferView":40,
			"componentType":5126,
			"count":729,
			"max":[
				6.690598487854004,
				54.52935028076172,
				9.230199813842773
			],
			"min":[
				-26.093040466308594,
				-15.87519645690918,
				-34.67949676513672
			],
			"type":"VEC3"
		},
		{
			"bufferView":41,
			"componentType":5126,
			"count":729,
			"type":"VEC3"
		},
		{
			"bufferView":42,
			"componentType":5126,
			"count":729,
			"type":"VEC2"
		},
		{
			"bufferView":43,
			"componentType":5123,
			"count":1476,
			"type":"SCALAR"
		},
		{
			"bufferView":44,
			"componentType":5126,
			"count":262,
			"max":[
				21.405414581298828,
				3.070099353790283,
				18.755958557128906
			],
			"min":[
				-21.918725967407227,
				-1.0072340965270996,
				-5.673542022705078
			],
			"type":"VEC3"
		},
		{
			"bufferView":45,
			"componentType":5126,
			"count":262,
			"type":"VEC3"
		},
		{
			"bufferView":46,
			"componentType":5126,
			"count":262,
			"type":"VEC2"
		},
		{
			"bufferView":47,
			"componentType":5123,
			"count":408,
			"type":"SCALAR"
		},
		{
			"bufferView":48,
			"componentType":5126,
			"count":24,
			"max":[
				1,
				1,
				1
			],
			"min":[
				-1,
				-1,
				-1
			],
			"type":"VEC3"
		},
		{
			"bufferView":49,
			"componentType":5126,
			"count":24,
			"type":"VEC3"
		},
		{
			"bufferView":50,
			"componentType":5126,
			"count":24,
			"type":"VEC2"
		},
		{
			"bufferView":51,
			"componentType":5123,
			"count":36,
			"type":"SCALAR"
		},
		{
			"bufferView":52,
			"componentType":5126,
			"count":175,
			"max":[
				1.0005595684051514,
				2.338364601135254,
				1.9873648881912231
			],
			"min":[
				-0.9994404315948486,
				-0.3421633243560791,
				-0.012635111808776855
			],
			"type":"VEC3"
		},
		{
			"bufferView":53,
			"componentType":5126,
			"count":175,
			"type":"VEC3"
		},
		{
			"bufferView":54,
			"componentType":5126,
			"count":175,
			"type":"VEC2"
		},
		{
			"bufferView":55,
			"componentType":5123,
			"count":285,
			"type":"SCALAR"
		},
		{
			"bufferView":56,
			"componentType":5126,
			"count":262,
			"max":[
				21.405414581298828,
				3.070099353790283,
				18.755958557128906
			],
			"min":[
				-21.918725967407227,
				-1.0072340965270996,
				-5.673542022705078
			],
			"type":"VEC3"
		},
		{
			"bufferView":57,
			"componentType":5126,
			"count":262,
			"type":"VEC3"
		},
		{
			"bufferView":58,
			"componentType":5126,
			"count":262,
			"type":"VEC2"
		},
		{
			"bufferView":59,
			"componentType":5123,
			"count":396,
			"type":"SCALAR"
		},
		{
			"bufferView":60,
			"componentType":5126,
			"count":139,
			"max":[
				1,
				1,
				0.7254973649978638
			],
			"min":[
				-1,
				-1.3214852809906006,
				-1.315064549446106
			],
			"type":"VEC3"
		},
		{
			"bufferView":61,
			"componentType":5126,
			"count":139,
			"type":"VEC3"
		},
		{
			"bufferView":62,
			"componentType":5126,
			"count":139,
			"type":"VEC2"
		},
		{
			"bufferView":63,
			"componentType":5123,
			"count":261,
			"type":"SCALAR"
		},
		{
			"bufferView":64,
			"componentType":5126,
			"count":214,
			"max":[
				23.667102813720703,
				2.8313467502593994,
				17.6322078704834
			],
			"min":[
				-26.336685180664062,
				-1.0072340965270996,
				-1.5622382164001465
			],
			"type":"VEC3"
		},
		{
			"bufferView":65,
			"componentType":5126,
			"count":214,
			"type":"VEC3"
		},
		{
			"bufferView":66,
			"componentType":5126,
			"count":214,
			"type":"VEC2"
		},
		{
			"bufferView":67,
			"componentType":5123,
			"count":324,
			"type":"SCALAR"
		},
		{
			"bufferView":68,
			"componentType":5126,
			"count":1988,
			"max":[
				2.0991756916046143,
				1.9508370161056519,
				1.1041678190231323
			],
			"min":[
				-1.0746676921844482,
				-1.1607797145843506,
				-2.3540198802948
			],
			"type":"VEC3"
		},
		{
			"bufferView":69,
			"componentType":5126,
			"count":1988,
			"type":"VEC3"
		},
		{
			"bufferView":70,
			"componentType":5126,
			"count":1988,
			"type":"VEC2"
		},
		{
			"bufferView":71,
			"componentType":5123,
			"count":3570,
			"type":"SCALAR"
		},
		{
			"bufferView":72,
			"componentType":5126,
			"count":82,
			"max":[
				1,
				2.61311674118042,
				1.1988016366958618
			],
			"min":[
				-1,
				-1,
				-1
			],
			"type":"VEC3"
		},
		{
			"bufferView":73,
			"componentType":5126,
			"count":82,
			"type":"VEC3"
		},
		{
			"bufferView":74,
			"componentType":5126,
			"count":82,
			"type":"VEC2"
		},
		{
			"bufferView":75,
			"componentType":5123,
			"count":156,
			"type":"SCALAR"
		},
		{
			"bufferView":76,
			"componentType":5126,
			"count":416,
			"max":[
				0.7356031537055969,
				1.1545878648757935,
				1.2250347137451172
			],
			"min":[
				0.33938702940940857,
				0.3285139799118042,
				0.6811057329177856
			],
			"type":"VEC3"
		},
		{
			"bufferView":77,
			"componentType":5126,
			"count":416,
			"type":"VEC3"
		},
		{
			"bufferView":78,
			"componentType":5126,
			"count":416,
			"type":"VEC2"
		},
		{
			"bufferView":79,
			"componentType":5123,
			"count":744,
			"type":"SCALAR"
		},
		{
			"bufferView":80,
			"componentType":5126,
			"count":880,
			"max":[
				1.0657989978790283,
				1.8183470964431763,
				1.0657998323440552
			],
			"min":[
				-1.0657989978790283,
				-1,
				-1.065798044204712
			],
			"type":"VEC3"
		},
		{
			"bufferView":81,
			"componentType":5126,
			"count":880,
			"type":"VEC3"
		},
		{
			"bufferView":82,
			"componentType":5126,
			"count":880,
			"type":"VEC2"
		},
		{
			"bufferView":83,
			"componentType":5123,
			"count":1434,
			"type":"SCALAR"
		},
		{
			"bufferView":84,
			"componentType":5126,
			"count":50,
			"max":[
				1,
				2.9007694721221924,
				1
			],
			"min":[
				-1,
				-1,
				-1
			],
			"type":"VEC3"
		},
		{
			"bufferView":85,
			"componentType":5126,
			"count":50,
			"type":"VEC3"
		},
		{
			"bufferView":86,
			"componentType":5126,
			"count":50,
			"type":"VEC2"
		},
		{
			"bufferView":87,
			"componentType":5123,
			"count":84,
			"type":"SCALAR"
		},
		{
			"bufferView":88,
			"componentType":5126,
			"count":44,
			"max":[
				1.0000001192092896,
				2.7060084342956543,
				1
			],
			"min":[
				-1.0000001192092896,
				-1,
				-1
			],
			"type":"VEC3"
		},
		{
			"bufferView":89,
			"componentType":5126,
			"count":44,
			"type":"VEC3"
		},
		{
			"bufferView":90,
			"componentType":5126,
			"count":44,
			"type":"VEC2"
		},
		{
			"bufferView":91,
			"componentType":5123,
			"count":84,
			"type":"SCALAR"
		},
		{
			"bufferView":92,
			"componentType":5126,
			"count":256,
			"max":[
				21.405414581298828,
				3.070099353790283,
				18.755958557128906
			],
			"min":[
				-21.918725967407227,
				-1.0072340965270996,
				-5.673542022705078
			],
			"type":"VEC3"
		},
		{
			"bufferView":93,
			"componentType":5126,
			"count":256,
			"type":"VEC3"
		},
		{
			"bufferView":94,
			"componentType":5126,
			"count":256,
			"type":"VEC2"
		},
		{
			"bufferView":95,
			"componentType":5123,
			"count":396,
			"type":"SCALAR"
		},
		{
			"bufferView":96,
			"componentType":5126,
			"count":64,
			"max":[
				1.1613459587097168,
				0.30746400356292725,
				1.1637792587280273
			],
			"min":[
				-1.1613459587097168,
				-0.30746400356292725,
				-1.1637792587280273
			],
			"type":"VEC3"
		},
		{
			"bufferView":97,
			"componentType":5126,
			"count":64,
			"type":"VEC3"
		},
		{
			"bufferView":98,
			"componentType":5126,
			"count":64,
			"type":"VEC2"
		},
		{
			"bufferView":99,
			"componentType":5123,
			"count":96,
			"type":"SCALAR"
		},
		{
			"bufferView":100,
			"componentType":5126,
			"count":64,
			"max":[
				1.2350449562072754,
				0.48751893639564514,
				1.1637792587280273
			],
			"min":[
				-1.0876469612121582,
				-0.3071284890174866,
				-1.1637792587280273
			],
			"type":"VEC3"
		},
		{
			"bufferView":101,
			"componentType":5126,
			"count":64,
			"type":"VEC3"
		},
		{
			"bufferView":102,
			"componentType":5126,
			"count":64,
			"type":"VEC2"
		},
		{
			"bufferView":103,
			"componentType":5123,
			"count":96,
			"type":"SCALAR"
		},
		{
			"bufferView":104,
			"componentType":5126,
			"count":46,
			"max":[
				1.0000001192092896,
				2.7060084342956543,
				1
			],
			"min":[
				-1.0000001192092896,
				-1,
				-1
			],
			"type":"VEC3"
		},
		{
			"bufferView":105,
			"componentType":5126,
			"count":46,
			"type":"VEC3"
		},
		{
			"bufferView":106,
			"componentType":5126,
			"count":46,
			"type":"VEC2"
		},
		{
			"bufferView":107,
			"componentType":5123,
			"count":84,
			"type":"SCALAR"
		},
		{
			"bufferView":108,
			"componentType":5126,
			"count":2250,
			"max":[
				3.5492310523986816,
				3.0315663814544678,
				1.2518253326416016
			],
			"min":[
				-1,
				-1.849200963973999,
				-4.2532243728637695
			],
			"type":"VEC3"
		},
		{
			"bufferView":109,
			"componentType":5126,
			"count":2250,
			"type":"VEC3"
		},
		{
			"bufferView":110,
			"componentType":5126,
			"count":2250,
			"type":"VEC2"
		},
		{
			"bufferView":111,
			"componentType":5123,
			"count":4950,
			"type":"SCALAR"
		},
		{
			"bufferView":112,
			"componentType":5126,
			"count":2213,
			"max":[
				1.0450162887573242,
				4.5889787673950195,
				1.503373622894287
			],
			"min":[
				-1.8013039827346802,
				-1.588400959968567,
				-1.0208183526992798
			],
			"type":"VEC3"
		},
		{
			"bufferView":113,
			"componentType":5126,
			"count":2213,
			"type":"VEC3"
		},
		{
			"bufferView":114,
			"componentType":5126,
			"count":2213,
			"type":"VEC2"
		},
		{
			"bufferView":115,
			"componentType":5123,
			"count":4896,
			"type":"SCALAR"
		},
		{
			"bufferView":116,
			"componentType":5126,
			"count":366,
			"max":[
				29.139400482177734,
				3.7261924743652344,
				6.873285293579102
			],
			"min":[
				-5.744394302368164,
				-36.12919616699219,
				-11.544398307800293
			],
			"type":"VEC3"
		},
		{
			"bufferView":117,
			"componentType":5126,
			"count":366,
			"type":"VEC3"
		},
		{
			"bufferView":118,
			"componentType":5126,
			"count":366,
			"type":"VEC2"
		},
		{
			"bufferView":119,
			"componentType":5123,
			"count":582,
			"type":"SCALAR"
		},
		{
			"bufferView":120,
			"componentType":5126,
			"count":1477,
			"max":[
				5.940195083618164,
				10.414312362670898,
				0.9188929796218872
			],
			"min":[
				-21.280593872070312,
				-1.5519524812698364,
				-14.297401428222656
			],
			"type":"VEC3"
		},
		{
			"bufferView":121,
			"componentType":5126,
			"count":1477,
			"type":"VEC3"
		},
		{
			"bufferView":122,
			"componentType":5126,
			"count":1477,
			"type":"VEC2"
		},
		{
			"bufferView":123,
			"componentType":5123,
			"count":2958,
			"type":"SCALAR"
		},
		{
			"bufferView":124,
			"componentType":5126,
			"count":4146,
			"max":[
				1.0799527168273926,
				5.683816909790039,
				1.0799527168273926
			],
			"min":[
				-1.0799527168273926,
				-1.0112327337265015,
				-1.0799527168273926
			],
			"type":"VEC3"
		},
		{
			"bufferView":125,
			"componentType":5126,
			"count":4146,
			"type":"VEC3"
		},
		{
			"bufferView":126,
			"componentType":5126,
			"count":4146,
			"type":"VEC2"
		},
		{
			"bufferView":127,
			"componentType":5123,
			"count":11247,
			"type":"SCALAR"
		},
		{
			"bufferView":128,
			"componentType":5126,
			"count":4,
			"max":[
				1,
				0,
				1
			],
			"min":[
				-1,
				0,
				-1
			],
			"type":"VEC3"
		},
		{
			"bufferView":129,
			"componentType":5126,
			"count":4,
			"type":"VEC3"
		},
		{
			"bufferView":130,
			"componentType":5126,
			"count":4,
			"type":"VEC2"
		},
		{
			"bufferView":131,
			"componentType":5123,
			"count":6,
			"type":"SCALAR"
		},
		{
			"bufferView":132,
			"componentType":5126,
			"count":1058,
			"max":[
				1,
				2.498340606689453,
				9.833117485046387
			],
			"min":[
				-9.374008178710938,
				-17.362876892089844,
				-11.790493965148926
			],
			"type":"VEC3"
		},
		{
			"bufferView":133,
			"componentType":5126,
			"count":1058,
			"type":"VEC3"
		},
		{
			"bufferView":134,
			"componentType":5126,
			"count":1058,
			"type":"VEC2"
		},
		{
			"bufferView":135,
			"componentType":5123,
			"count":3744,
			"type":"SCALAR"
		},
		{
			"bufferView":136,
			"componentType":5126,
			"count":200,
			"max":[
				1,
				1,
				1
			],
			"min":[
				-1.0056813955307007,
				-1,
				-1
			],
			"type":"VEC3"
		},
		{
			"bufferView":137,
			"componentType":5126,
			"count":200,
			"type":"VEC3"
		},
		{
			"bufferView":138,
			"componentType":5126,
			"count":200,
			"type":"VEC2"
		},
		{
			"bufferView":139,
			"componentType":5123,
			"count":378,
			"type":"SCALAR"
		},
		{
			"bufferView":140,
			"componentType":5126,
			"count":204,
			"max":[
				1,
				1,
				1
			],
			"min":[
				-1.0056813955307007,
				-1,
				-1
			],
			"type":"VEC3"
		},
		{
			"bufferView":141,
			"componentType":5126,
			"count":204,
			"type":"VEC3"
		},
		{
			"bufferView":142,
			"componentType":5126,
			"count":204,
			"type":"VEC2"
		},
		{
			"bufferView":143,
			"componentType":5123,
			"count":384,
			"type":"SCALAR"
		},
		{
			"bufferView":144,
			"componentType":5126,
			"count":349,
			"max":[
				10.066511154174805,
				2.1671361923217773,
				21.859416961669922
			],
			"min":[
				-38.15700149536133,
				-22.831941604614258,
				-2.339779853820801
			],
			"type":"VEC3"
		},
		{
			"bufferView":145,
			"componentType":5126,
			"count":349,
			"type":"VEC3"
		},
		{
			"bufferView":146,
			"componentType":5126,
			"count":349,
			"type":"VEC2"
		},
		{
			"bufferView":147,
			"componentType":5123,
			"count":627,
			"type":"SCALAR"
		},
		{
			"bufferView":148,
			"componentType":5126,
			"count":204,
			"max":[
				1,
				1,
				1
			],
			"min":[
				-1.0056813955307007,
				-1,
				-1
			],
			"type":"VEC3"
		},
		{
			"bufferView":149,
			"componentType":5126,
			"count":204,
			"type":"VEC3"
		},
		{
			"bufferView":150,
			"componentType":5126,
			"count":204,
			"type":"VEC2"
		},
		{
			"bufferView":151,
			"componentType":5126,
			"count":864,
			"max":[
				2.216231346130371,
				1.415432095527649,
				2.7569689750671387
			],
			"min":[
				-2.216231346130371,
				-1.415432095527649,
				-2.7569687366485596
			],
			"type":"VEC3"
		},
		{
			"bufferView":152,
			"componentType":5126,
			"count":864,
			"type":"VEC3"
		},
		{
			"bufferView":153,
			"componentType":5126,
			"count":864,
			"type":"VEC2"
		},
		{
			"bufferView":154,
			"componentType":5123,
			"count":1296,
			"type":"SCALAR"
		},
		{
			"bufferView":155,
			"componentType":5126,
			"count":2472,
			"max":[
				2.132857322692871,
				5.411654472351074,
				8.580513000488281
			],
			"min":[
				-9.231492042541504,
				-1.087287425994873,
				-0.9999955892562866
			],
			"type":"VEC3"
		},
		{
			"bufferView":156,
			"componentType":5126,
			"count":2472,
			"type":"VEC3"
		},
		{
			"bufferView":157,
			"componentType":5126,
			"count":2472,
			"type":"VEC2"
		},
		{
			"bufferView":158,
			"componentType":5123,
			"count":5055,
			"type":"SCALAR"
		},
		{
			"bufferView":159,
			"componentType":5126,
			"count":120,
			"max":[
				14.694607734680176,
				1.0775909423828125,
				9.068534851074219
			],
			"min":[
				-14.69460678100586,
				-1.0775909423828125,
				-9.068534851074219
			],
			"type":"VEC3"
		},
		{
			"bufferView":160,
			"componentType":5126,
			"count":120,
			"type":"VEC3"
		},
		{
			"bufferView":161,
			"componentType":5126,
			"count":120,
			"type":"VEC2"
		},
		{
			"bufferView":162,
			"componentType":5123,
			"count":180,
			"type":"SCALAR"
		},
		{
			"bufferView":163,
			"componentType":5126,
			"count":120,
			"max":[
				14.694607734680176,
				1.0775909423828125,
				9.068534851074219
			],
			"min":[
				-14.69460678100586,
				-1.0775909423828125,
				-9.068534851074219
			],
			"type":"VEC3"
		},
		{
			"bufferView":164,
			"componentType":5126,
			"count":120,
			"type":"VEC3"
		},
		{
			"bufferView":165,
			"componentType":5126,
			"count":120,
			"type":"VEC2"
		},
		{
			"bufferView":166,
			"componentType":5126,
			"count":64,
			"max":[
				1.1613459587097168,
				0.30746400356292725,
				1.1637792587280273
			],
			"min":[
				-1.1613459587097168,
				-0.30746400356292725,
				-1.1637792587280273
			],
			"type":"VEC3"
		},
		{
			"bufferView":167,
			"componentType":5126,
			"count":64,
			"type":"VEC3"
		},
		{
			"bufferView":168,
			"componentType":5126,
			"count":64,
			"type":"VEC2"
		},
		{
			"bufferView":169,
			"componentType":5126,
			"count":49,
			"max":[
				2.0181031227111816,
				-0.3862209916114807,
				2.0181031227111816
			],
			"min":[
				-2.0181031227111816,
				-0.7789751291275024,
				-2.0181031227111816
			],
			"type":"VEC3"
		},
		{
			"bufferView":170,
			"componentType":5126,
			"count":49,
			"type":"VEC3"
		},
		{
			"bufferView":171,
			"componentType":5126,
			"count":49,
			"type":"VEC2"
		},
		{
			"bufferView":172,
			"componentType":5123,
			"count":96,
			"type":"SCALAR"
		},
		{
			"bufferView":173,
			"componentType":5126,
			"count":49,
			"max":[
				2.0181031227111816,
				-0.3862209916114807,
				2.0181031227111816
			],
			"min":[
				-2.0181031227111816,
				-0.7789751291275024,
				-2.0181031227111816
			],
			"type":"VEC3"
		},
		{
			"bufferView":174,
			"componentType":5126,
			"count":49,
			"type":"VEC3"
		},
		{
			"bufferView":175,
			"componentType":5126,
			"count":49,
			"type":"VEC2"
		},
		{
			"bufferView":176,
			"componentType":5126,
			"count":49,
			"max":[
				2.0181031227111816,
				-0.3862209916114807,
				2.0181031227111816
			],
			"min":[
				-2.0181031227111816,
				-0.7789751291275024,
				-2.0181031227111816
			],
			"type":"VEC3"
		},
		{
			"bufferView":177,
			"componentType":5126,
			"count":49,
			"type":"VEC3"
		},
		{
			"bufferView":178,
			"componentType":5126,
			"count":49,
			"type":"VEC2"
		},
		{
			"bufferView":179,
			"componentType":5126,
			"count":49,
			"max":[
				2.0181031227111816,
				-0.3862209916114807,
				2.0181031227111816
			],
			"min":[
				-2.0181031227111816,
				-0.7789751291275024,
				-2.0181031227111816
			],
			"type":"VEC3"
		},
		{
			"bufferView":180,
			"componentType":5126,
			"count":49,
			"type":"VEC3"
		},
		{
			"bufferView":181,
			"componentType":5126,
			"count":49,
			"type":"VEC2"
		},
		{
			"bufferView":182,
			"componentType":5126,
			"count":49,
			"max":[
				2.0181031227111816,
				-0.3862209916114807,
				2.0181031227111816
			],
			"min":[
				-2.0181031227111816,
				-0.7789751291275024,
				-2.0181031227111816
			],
			"type":"VEC3"
		},
		{
			"bufferView":183,
			"componentType":5126,
			"count":49,
			"type":"VEC3"
		},
		{
			"bufferView":184,
			"componentType":5126,
			"count":49,
			"type":"VEC2"
		},
		{
			"bufferView":185,
			"componentType":5126,
			"count":51,
			"max":[
				2.0276432037353516,
				-0.3862209916114807,
				2.0181031227111816
			],
			"min":[
				-2.0181031227111816,
				-0.9371958374977112,
				-2.019543170928955
			],
			"type":"VEC3"
		},
		{
			"bufferView":186,
			"componentType":5126,
			"count":51,
			"type":"VEC3"
		},
		{
			"bufferView":187,
			"componentType":5126,
			"count":51,
			"type":"VEC2"
		},
		{
			"bufferView":188,
			"componentType":5123,
			"count":96,
			"type":"SCALAR"
		},
		{
			"bufferView":189,
			"componentType":5126,
			"count":4,
			"max":[
				0.9467455744743347,
				0,
				0.5
			],
			"min":[
				-0.9467455744743347,
				0,
				-0.5
			],
			"type":"VEC3"
		},
		{
			"bufferView":190,
			"componentType":5126,
			"count":4,
			"type":"VEC3"
		},
		{
			"bufferView":191,
			"componentType":5126,
			"count":4,
			"type":"VEC2"
		},
		{
			"bufferView":192,
			"componentType":5126,
			"count":4,
			"max":[
				0.5,
				0,
				0.5
			],
			"min":[
				-0.5,
				0,
				-0.5
			],
			"type":"VEC3"
		},
		{
			"bufferView":193,
			"componentType":5126,
			"count":4,
			"type":"VEC3"
		},
		{
			"bufferView":194,
			"componentType":5126,
			"count":4,
			"type":"VEC2"
		},
		{
			"bufferView":195,
			"componentType":5126,
			"count":4,
			"max":[
				0.5,
				0,
				0.5
			],
			"min":[
				-0.5,
				0,
				-0.5
			],
			"type":"VEC3"
		},
		{
			"bufferView":196,
			"componentType":5126,
			"count":4,
			"type":"VEC3"
		},
		{
			"bufferView":197,
			"componentType":5126,
			"count":4,
			"type":"VEC2"
		},
		{
			"bufferView":198,
			"componentType":5126,
			"count":4,
			"max":[
				0.5,
				0,
				0.5
			],
			"min":[
				-0.5,
				0,
				-0.5
			],
			"type":"VEC3"
		},
		{
			"bufferView":199,
			"componentType":5126,
			"count":4,
			"type":"VEC3"
		},
		{
			"bufferView":200,
			"componentType":5126,
			"count":4,
			"type":"VEC2"
		},
		{
			"bufferView":201,
			"componentType":5126,
			"count":4,
			"max":[
				0.5,
				0,
				0.5
			],
			"min":[
				-0.5,
				0,
				-0.5
			],
			"type":"VEC3"
		},
		{
			"bufferView":202,
			"componentType":5126,
			"count":4,
			"type":"VEC3"
		},
		{
			"bufferView":203,
			"componentType":5126,
			"count":4,
			"type":"VEC2"
		},
		{
			"bufferView":204,
			"componentType":5126,
			"count":4,
			"max":[
				0.5,
				0,
				0.5
			],
			"min":[
				-0.5,
				0,
				-0.5
			],
			"type":"VEC3"
		},
		{
			"bufferView":205,
			"componentType":5126,
			"count":4,
			"type":"VEC3"
		},
		{
			"bufferView":206,
			"componentType":5126,
			"count":4,
			"type":"VEC2"
		},
		{
			"bufferView":207,
			"componentType":5126,
			"count":49,
			"max":[
				2.0181031227111816,
				-0.3862209916114807,
				2.0181031227111816
			],
			"min":[
				-2.0181031227111816,
				-0.7789751291275024,
				-2.0181031227111816
			],
			"type":"VEC3"
		},
		{
			"bufferView":208,
			"componentType":5126,
			"count":49,
			"type":"VEC3"
		},
		{
			"bufferView":209,
			"componentType":5126,
			"count":49,
			"type":"VEC2"
		},
		{
			"bufferView":210,
			"componentType":5126,
			"count":598,
			"max":[
				1.0501773357391357,
				2.0023975372314453,
				1.0501774549484253
			],
			"min":[
				-1.0501773357391357,
				-1.0028514862060547,
				-1.0501774549484253
			],
			"type":"VEC3"
		},
		{
			"bufferView":211,
			"componentType":5126,
			"count":598,
			"type":"VEC3"
		},
		{
			"bufferView":212,
			"componentType":5126,
			"count":598,
			"type":"VEC2"
		},
		{
			"bufferView":213,
			"componentType":5123,
			"count":1008,
			"type":"SCALAR"
		},
		{
			"bufferView":214,
			"componentType":5126,
			"count":162,
			"max":[
				1.7310338020324707,
				0.17504975199699402,
				0.9902470111846924
			],
			"min":[
				-0.4107239246368408,
				-0.1064070463180542,
				-1.0097525119781494
			],
			"type":"VEC3"
		},
		{
			"bufferView":215,
			"componentType":5126,
			"count":162,
			"type":"VEC3"
		},
		{
			"bufferView":216,
			"componentType":5126,
			"count":162,
			"type":"VEC2"
		},
		{
			"bufferView":217,
			"componentType":5123,
			"count":330,
			"type":"SCALAR"
		},
		{
			"bufferView":218,
			"componentType":5126,
			"count":412,
			"max":[
				1.4806804656982422,
				11.850003242492676,
				1.5568792819976807
			],
			"min":[
				-1.480680227279663,
				-11.417611122131348,
				-1.5568794012069702
			],
			"type":"VEC3"
		},
		{
			"bufferView":219,
			"componentType":5126,
			"count":412,
			"type":"VEC3"
		},
		{
			"bufferView":220,
			"componentType":5126,
			"count":412,
			"type":"VEC2"
		},
		{
			"bufferView":221,
			"componentType":5123,
			"count":1068,
			"type":"SCALAR"
		},
		{
			"bufferView":222,
			"componentType":5126,
			"count":95,
			"max":[
				1,
				5.820725917816162,
				1
			],
			"min":[
				-1,
				-1,
				-1
			],
			"type":"VEC3"
		},
		{
			"bufferView":223,
			"componentType":5126,
			"count":95,
			"type":"VEC3"
		},
		{
			"bufferView":224,
			"componentType":5126,
			"count":95,
			"type":"VEC2"
		},
		{
			"bufferView":225,
			"componentType":5123,
			"count":420,
			"type":"SCALAR"
		},
		{
			"bufferView":226,
			"componentType":5126,
			"count":95,
			"max":[
				1.5466465950012207,
				2.0416479110717773,
				1.5466464757919312
			],
			"min":[
				-1.5466465950012207,
				-1.201712965965271,
				-1.5466467142105103
			],
			"type":"VEC3"
		},
		{
			"bufferView":227,
			"componentType":5126,
			"count":95,
			"type":"VEC3"
		},
		{
			"bufferView":228,
			"componentType":5126,
			"count":95,
			"type":"VEC2"
		},
		{
			"bufferView":229,
			"componentType":5123,
			"count":432,
			"type":"SCALAR"
		},
		{
			"bufferView":230,
			"componentType":5126,
			"count":412,
			"max":[
				1.4806804656982422,
				11.850003242492676,
				1.5568792819976807
			],
			"min":[
				-1.480680227279663,
				-11.417611122131348,
				-1.5568794012069702
			],
			"type":"VEC3"
		},
		{
			"bufferView":231,
			"componentType":5126,
			"count":412,
			"type":"VEC3"
		},
		{
			"bufferView":232,
			"componentType":5126,
			"count":412,
			"type":"VEC2"
		},
		{
			"bufferView":233,
			"componentType":5123,
			"count":1068,
			"type":"SCALAR"
		},
		{
			"bufferView":234,
			"componentType":5126,
			"count":95,
			"max":[
				1.5466465950012207,
				2.0416479110717773,
				1.5466464757919312
			],
			"min":[
				-1.5466465950012207,
				-1.201712965965271,
				-1.5466467142105103
			],
			"type":"VEC3"
		},
		{
			"bufferView":235,
			"componentType":5126,
			"count":95,
			"type":"VEC3"
		},
		{
			"bufferView":236,
			"componentType":5126,
			"count":95,
			"type":"VEC2"
		},
		{
			"bufferView":237,
			"componentType":5126,
			"count":326,
			"max":[
				1.4806804656982422,
				11.850003242492676,
				1.5568792819976807
			],
			"min":[
				-1.480680227279663,
				-11.417611122131348,
				-1.5568794012069702
			],
			"type":"VEC3"
		},
		{
			"bufferView":238,
			"componentType":5126,
			"count":326,
			"type":"VEC3"
		},
		{
			"bufferView":239,
			"componentType":5126,
			"count":326,
			"type":"VEC2"
		},
		{
			"bufferView":240,
			"componentType":5123,
			"count":1083,
			"type":"SCALAR"
		},
		{
			"bufferView":241,
			"componentType":5126,
			"count":412,
			"max":[
				1.4806804656982422,
				11.850003242492676,
				1.5568792819976807
			],
			"min":[
				-1.480680227279663,
				-11.417611122131348,
				-1.5568794012069702
			],
			"type":"VEC3"
		},
		{
			"bufferView":242,
			"componentType":5126,
			"count":412,
			"type":"VEC3"
		},
		{
			"bufferView":243,
			"componentType":5126,
			"count":412,
			"type":"VEC2"
		},
		{
			"bufferView":244,
			"componentType":5123,
			"count":1068,
			"type":"SCALAR"
		}
	],
	"bufferViews":[
		{
			"buffer":0,
			"byteLength":14040,
			"byteOffset":0,
			"target":34962
		},
		{
			"buffer":0,
			"byteLength":14040,
			"byteOffset":14040,
			"target":34962
		},
		{
			"buffer":0,
			"byteLength":9360,
			"byteOffset":28080,
			"target":34962
		},
		{
			"buffer":0,
			"byteLength":12960,
			"byteOffset":37440,
			"target":34963
		},
		{
			"buffer":0,
			"byteLength":10500,
			"byteOffset":50400,
			"target":34962
		},
		{
			"buffer":0,
			"byteLength":10500,
			"byteOffset":60900,
			"target":34962
		},
		{
			"buffer":0,
			"byteLength":7000,
			"byteOffset":71400,
			"target":34962
		},
		{
			"buffer":0,
			"byteLength":2820,
			"byteOffset":78400,
			"target":34963
		},
		{
			"buffer":0,
			"byteLength":12492,
			"byteOffset":81220,
			"target":34962
		},
		{
			"buffer":0,
			"byteLength":12492,
			"byteOffset":93712,
			"target":34962
		},
		{
			"buffer":0,
			"byteLength":8328,
			"byteOffset":106204,
			"target":34962
		},
		{
			"buffer":0,
			"byteLength":3516,
			"byteOffset":114532,
			"target":34963
		},
		{
			"buffer":0,
			"byteLength":72,
			"byteOffset":118048,
			"target":34962
		},
		{
			"buffer":0,
			"byteLength":72,
			"byteOffset":118120,
			"target":34962
		},
		{
			"buffer":0,
			"byteLength":48,
			"byteOffset":118192,
			"target":34962
		},
		{
			"buffer":0,
			"byteLength":24,
			"byteOffset":118240,
			"target":34963
		},
		{
			"buffer":0,
			"byteLength":708,
			"byteOffset":118264,
			"target":34962
		},
		{
			"buffer":0,
			"byteLength":708,
			"byteOffset":118972,
			"target":34962
		},
		{
			"buffer":0,
			"byteLength":472,
			"byteOffset":119680,
			"target":34962
		},
		{
			"buffer":0,
			"byteLength":222,
			"byteOffset":120152,
			"target":34963
		},
		{
			"buffer":0,
			"byteLength":14760,
			"byteOffset":120376,
			"target":34962
		},
		{
			"buffer":0,
			"byteLength":14760,
			"byteOffset":135136,
			"target":34962
		},
		{
			"buffer":0,
			"byteLength":9840,
			"byteOffset":149896,
			"target":34962
		},
		{
			"buffer":0,
			"byteLength":4152,
			"byteOffset":159736,
			"target":34963
		},
		{
			"buffer":0,
			"byteLength":288,
			"byteOffset":163888,
			"target":34962
		},
		{
			"buffer":0,
			"byteLength":288,
			"byteOffset":164176,
			"target":34962
		},
		{
			"buffer":0,
			"byteLength":192,
			"byteOffset":164464,
			"target":34962
		},
		{
			"buffer":0,
			"byteLength":72,
			"byteOffset":164656,
			"target":34963
		},
		{
			"buffer":0,
			"byteLength":576,
			"byteOffset":164728,
			"target":34962
		},
		{
			"buffer":0,
			"byteLength":576,
			"byteOffset":165304,
			"target":34962
		},
		{
			"buffer":0,
			"byteLength":384,
			"byteOffset":165880,
			"target":34962
		},
		{
			"buffer":0,
			"byteLength":144,
			"byteOffset":166264,
			"target":34963
		},
		{
			"buffer":0,
			"byteLength":13992,
			"byteOffset":166408,
			"target":34962
		},
		{
			"buffer":0,
			"byteLength":13992,
			"byteOffset":180400,
			"target":34962
		},
		{
			"buffer":0,
			"byteLength":9328,
			"byteOffset":194392,
			"target":34962
		},
		{
			"buffer":0,
			"byteLength":3792,
			"byteOffset":203720,
			"target":34963
		},
		{
			"buffer":0,
			"byteLength":576,
			"byteOffset":207512,
			"target":34962
		},
		{
			"buffer":0,
			"byteLength":576,
			"byteOffset":208088,
			"target":34962
		},
		{
			"buffer":0,
			"byteLength":384,
			"byteOffset":208664,
			"target":34962
		},
		{
			"buffer":0,
			"byteLength":168,
			"byteOffset":209048,
			"target":34963
		},
		{
			"buffer":0,
			"byteLength":8748,
			"byteOffset":209216,
			"target":34962
		},
		{
			"buffer":0,
			"byteLength":8748,
			"byteOffset":217964,
			"target":34962
		},
		{
			"buffer":0,
			"byteLength":5832,
			"byteOffset":226712,
			"target":34962
		},
		{
			"buffer":0,
			"byteLength":2952,
			"byteOffset":232544,
			"target":34963
		},
		{
			"buffer":0,
			"byteLength":3144,
			"byteOffset":235496,
			"target":34962
		},
		{
			"buffer":0,
			"byteLength":3144,
			"byteOffset":238640,
			"target":34962
		},
		{
			"buffer":0,
			"byteLength":2096,
			"byteOffset":241784,
			"target":34962
		},
		{
			"buffer":0,
			"byteLength":816,
			"byteOffset":243880,
			"target":34963
		},
		{
			"buffer":0,
			"byteLength":288,
			"byteOffset":244696,
			"target":34962
		},
		{
			"buffer":0,
			"byteLength":288,
			"byteOffset":244984,
			"target":34962
		},
		{
			"buffer":0,
			"byteLength":192,
			"byteOffset":245272,
			"target":34962
		},
		{
			"buffer":0,
			"byteLength":72,
			"byteOffset":245464,
			"target":34963
		},
		{
			"buffer":0,
			"byteLength":2100,
			"byteOffset":245536,
			"target":34962
		},
		{
			"buffer":0,
			"byteLength":2100,
			"byteOffset":247636,
			"target":34962
		},
		{
			"buffer":0,
			"byteLength":1400,
			"byteOffset":249736,
			"target":34962
		},
		{
			"buffer":0,
			"byteLength":570,
			"byteOffset":251136,
			"target":34963
		},
		{
			"buffer":0,
			"byteLength":3144,
			"byteOffset":251708,
			"target":34962
		},
		{
			"buffer":0,
			"byteLength":3144,
			"byteOffset":254852,
			"target":34962
		},
		{
			"buffer":0,
			"byteLength":2096,
			"byteOffset":257996,
			"target":34962
		},
		{
			"buffer":0,
			"byteLength":792,
			"byteOffset":260092,
			"target":34963
		},
		{
			"buffer":0,
			"byteLength":1668,
			"byteOffset":260884,
			"target":34962
		},
		{
			"buffer":0,
			"byteLength":1668,
			"byteOffset":262552,
			"target":34962
		},
		{
			"buffer":0,
			"byteLength":1112,
			"byteOffset":264220,
			"target":34962
		},
		{
			"buffer":0,
			"byteLength":522,
			"byteOffset":265332,
			"target":34963
		},
		{
			"buffer":0,
			"byteLength":2568,
			"byteOffset":265856,
			"target":34962
		},
		{
			"buffer":0,
			"byteLength":2568,
			"byteOffset":268424,
			"target":34962
		},
		{
			"buffer":0,
			"byteLength":1712,
			"byteOffset":270992,
			"target":34962
		},
		{
			"buffer":0,
			"byteLength":648,
			"byteOffset":272704,
			"target":34963
		},
		{
			"buffer":0,
			"byteLength":23856,
			"byteOffset":273352,
			"target":34962
		},
		{
			"buffer":0,
			"byteLength":23856,
			"byteOffset":297208,
			"target":34962
		},
		{
			"buffer":0,
			"byteLength":15904,
			"byteOffset":321064,
			"target":34962
		},
		{
			"buffer":0,
			"byteLength":7140,
			"byteOffset":336968,
			"target":34963
		},
		{
			"buffer":0,
			"byteLength":984,
			"byteOffset":344108,
			"target":34962
		},
		{
			"buffer":0,
			"byteLength":984,
			"byteOffset":345092,
			"target":34962
		},
		{
			"buffer":0,
			"byteLength":656,
			"byteOffset":346076,
			"target":34962
		},
		{
			"buffer":0,
			"byteLength":312,
			"byteOffset":346732,
			"target":34963
		},
		{
			"buffer":0,
			"byteLength":4992,
			"byteOffset":347044,
			"target":34962
		},
		{
			"buffer":0,
			"byteLength":4992,
			"byteOffset":352036,
			"target":34962
		},
		{
			"buffer":0,
			"byteLength":3328,
			"byteOffset":357028,
			"target":34962
		},
		{
			"buffer":0,
			"byteLength":1488,
			"byteOffset":360356,
			"target":34963
		},
		{
			"buffer":0,
			"byteLength":10560,
			"byteOffset":361844,
			"target":34962
		},
		{
			"buffer":0,
			"byteLength":10560,
			"byteOffset":372404,
			"target":34962
		},
		{
			"buffer":0,
			"byteLength":7040,
			"byteOffset":382964,
			"target":34962
		},
		{
			"buffer":0,
			"byteLength":2868,
			"byteOffset":390004,
			"target":34963
		},
		{
			"buffer":0,
			"byteLength":600,
			"byteOffset":392872,
			"target":34962
		},
		{
			"buffer":0,
			"byteLength":600,
			"byteOffset":393472,
			"target":34962
		},
		{
			"buffer":0,
			"byteLength":400,
			"byteOffset":394072,
			"target":34962
		},
		{
			"buffer":0,
			"byteLength":168,
			"byteOffset":394472,
			"target":34963
		},
		{
			"buffer":0,
			"byteLength":528,
			"byteOffset":394640,
			"target":34962
		},
		{
			"buffer":0,
			"byteLength":528,
			"byteOffset":395168,
			"target":34962
		},
		{
			"buffer":0,
			"byteLength":352,
			"byteOffset":395696,
			"target":34962
		},
		{
			"buffer":0,
			"byteLength":168,
			"byteOffset":396048,
			"target":34963
		},
		{
			"buffer":0,
			"byteLength":3072,
			"byteOffset":396216,
			"target":34962
		},
		{
			"buffer":0,
			"byteLength":3072,
			"byteOffset":399288,
			"target":34962
		},
		{
			"buffer":0,
			"byteLength":2048,
			"byteOffset":402360,
			"target":34962
		},
		{
			"buffer":0,
			"byteLength":792,
			"byteOffset":404408,
			"target":34963
		},
		{
			"buffer":0,
			"byteLength":768,
			"byteOffset":405200,
			"target":34962
		},
		{
			"buffer":0,
			"byteLength":768,
			"byteOffset":405968,
			"target":34962
		},
		{
			"buffer":0,
			"byteLength":512,
			"byteOffset":406736,
			"target":34962
		},
		{
			"buffer":0,
			"byteLength":192,
			"byteOffset":407248,
			"target":34963
		},
		{
			"buffer":0,
			"byteLength":768,
			"byteOffset":407440,
			"target":34962
		},
		{
			"buffer":0,
			"byteLength":768,
			"byteOffset":408208,
			"target":34962
		},
		{
			"buffer":0,
			"byteLength":512,
			"byteOffset":408976,
			"target":34962
		},
		{
			"buffer":0,
			"byteLength":192,
			"byteOffset":409488,
			"target":34963
		},
		{
			"buffer":0,
			"byteLength":552,
			"byteOffset":409680,
			"target":34962
		},
		{
			"buffer":0,
			"byteLength":552,
			"byteOffset":410232,
			"target":34962
		},
		{
			"buffer":0,
			"byteLength":368,
			"byteOffset":410784,
			"target":34962
		},
		{
			"buffer":0,
			"byteLength":168,
			"byteOffset":411152,
			"target":34963
		},
		{
			"buffer":0,
			"byteLength":27000,
			"byteOffset":411320,
			"target":34962
		},
		{
			"buffer":0,
			"byteLength":27000,
			"byteOffset":438320,
			"target":34962
		},
		{
			"buffer":0,
			"byteLength":18000,
			"byteOffset":465320,
			"target":34962
		},
		{
			"buffer":0,
			"byteLength":9900,
			"byteOffset":483320,
			"target":34963
		},
		{
			"buffer":0,
			"byteLength":26556,
			"byteOffset":493220,
			"target":34962
		},
		{
			"buffer":0,
			"byteLength":26556,
			"byteOffset":519776,
			"target":34962
		},
		{
			"buffer":0,
			"byteLength":17704,
			"byteOffset":546332,
			"target":34962
		},
		{
			"buffer":0,
			"byteLength":9792,
			"byteOffset":564036,
			"target":34963
		},
		{
			"buffer":0,
			"byteLength":4392,
			"byteOffset":573828,
			"target":34962
		},
		{
			"buffer":0,
			"byteLength":4392,
			"byteOffset":578220,
			"target":34962
		},
		{
			"buffer":0,
			"byteLength":2928,
			"byteOffset":582612,
			"target":34962
		},
		{
			"buffer":0,
			"byteLength":1164,
			"byteOffset":585540,
			"target":34963
		},
		{
			"buffer":0,
			"byteLength":17724,
			"byteOffset":586704,
			"target":34962
		},
		{
			"buffer":0,
			"byteLength":17724,
			"byteOffset":604428,
			"target":34962
		},
		{
			"buffer":0,
			"byteLength":11816,
			"byteOffset":622152,
			"target":34962
		},
		{
			"buffer":0,
			"byteLength":5916,
			"byteOffset":633968,
			"target":34963
		},
		{
			"buffer":0,
			"byteLength":49752,
			"byteOffset":639884,
			"target":34962
		},
		{
			"buffer":0,
			"byteLength":49752,
			"byteOffset":689636,
			"target":34962
		},
		{
			"buffer":0,
			"byteLength":33168,
			"byteOffset":739388,
			"target":34962
		},
		{
			"buffer":0,
			"byteLength":22494,
			"byteOffset":772556,
			"target":34963
		},
		{
			"buffer":0,
			"byteLength":48,
			"byteOffset":795052,
			"target":34962
		},
		{
			"buffer":0,
			"byteLength":48,
			"byteOffset":795100,
			"target":34962
		},
		{
			"buffer":0,
			"byteLength":32,
			"byteOffset":795148,
			"target":34962
		},
		{
			"buffer":0,
			"byteLength":12,
			"byteOffset":795180,
			"target":34963
		},
		{
			"buffer":0,
			"byteLength":12696,
			"byteOffset":795192,
			"target":34962
		},
		{
			"buffer":0,
			"byteLength":12696,
			"byteOffset":807888,
			"target":34962
		},
		{
			"buffer":0,
			"byteLength":8464,
			"byteOffset":820584,
			"target":34962
		},
		{
			"buffer":0,
			"byteLength":7488,
			"byteOffset":829048,
			"target":34963
		},
		{
			"buffer":0,
			"byteLength":2400,
			"byteOffset":836536,
			"target":34962
		},
		{
			"buffer":0,
			"byteLength":2400,
			"byteOffset":838936,
			"target":34962
		},
		{
			"buffer":0,
			"byteLength":1600,
			"byteOffset":841336,
			"target":34962
		},
		{
			"buffer":0,
			"byteLength":756,
			"byteOffset":842936,
			"target":34963
		},
		{
			"buffer":0,
			"byteLength":2448,
			"byteOffset":843692,
			"target":34962
		},
		{
			"buffer":0,
			"byteLength":2448,
			"byteOffset":846140,
			"target":34962
		},
		{
			"buffer":0,
			"byteLength":1632,
			"byteOffset":848588,
			"target":34962
		},
		{
			"buffer":0,
			"byteLength":768,
			"byteOffset":850220,
			"target":34963
		},
		{
			"buffer":0,
			"byteLength":4188,
			"byteOffset":850988,
			"target":34962
		},
		{
			"buffer":0,
			"byteLength":4188,
			"byteOffset":855176,
			"target":34962
		},
		{
			"buffer":0,
			"byteLength":2792,
			"byteOffset":859364,
			"target":34962
		},
		{
			"buffer":0,
			"byteLength":1254,
			"byteOffset":862156,
			"target":34963
		},
		{
			"buffer":0,
			"byteLength":2448,
			"byteOffset":863412,
			"target":34962
		},
		{
			"buffer":0,
			"byteLength":2448,
			"byteOffset":865860,
			"target":34962
		},
		{
			"buffer":0,
			"byteLength":1632,
			"byteOffset":868308,
			"target":34962
		},
		{
			"buffer":0,
			"byteLength":10368,
			"byteOffset":869940,
			"target":34962
		},
		{
			"buffer":0,
			"byteLength":10368,
			"byteOffset":880308,
			"target":34962
		},
		{
			"buffer":0,
			"byteLength":6912,
			"byteOffset":890676,
			"target":34962
		},
		{
			"buffer":0,
			"byteLength":2592,
			"byteOffset":897588,
			"target":34963
		},
		{
			"buffer":0,
			"byteLength":29664,
			"byteOffset":900180,
			"target":34962
		},
		{
			"buffer":0,
			"byteLength":29664,
			"byteOffset":929844,
			"target":34962
		},
		{
			"buffer":0,
			"byteLength":19776,
			"byteOffset":959508,
			"target":34962
		},
		{
			"buffer":0,
			"byteLength":10110,
			"byteOffset":979284,
			"target":34963
		},
		{
			"buffer":0,
			"byteLength":1440,
			"byteOffset":989396,
			"target":34962
		},
		{
			"buffer":0,
			"byteLength":1440,
			"byteOffset":990836,
			"target":34962
		},
		{
			"buffer":0,
			"byteLength":960,
			"byteOffset":992276,
			"target":34962
		},
		{
			"buffer":0,
			"byteLength":360,
			"byteOffset":993236,
			"target":34963
		},
		{
			"buffer":0,
			"byteLength":1440,
			"byteOffset":993596,
			"target":34962
		},
		{
			"buffer":0,
			"byteLength":1440,
			"byteOffset":995036,
			"target":34962
		},
		{
			"buffer":0,
			"byteLength":960,
			"byteOffset":996476,
			"target":34962
		},
		{
			"buffer":0,
			"byteLength":768,
			"byteOffset":997436,
			"target":34962
		},
		{
			"buffer":0,
			"byteLength":768,
			"byteOffset":998204,
			"target":34962
		},
		{
			"buffer":0,
			"byteLength":512,
			"byteOffset":998972,
			"target":34962
		},
		{
			"buffer":0,
			"byteLength":588,
			"byteOffset":999484,
			"target":34962
		},
		{
			"buffer":0,
			"byteLength":588,
			"byteOffset":1000072,
			"target":34962
		},
		{
			"buffer":0,
			"byteLength":392,
			"byteOffset":1000660,
			"target":34962
		},
		{
			"buffer":0,
			"byteLength":192,
			"byteOffset":1001052,
			"target":34963
		},
		{
			"buffer":0,
			"byteLength":588,
			"byteOffset":1001244,
			"target":34962
		},
		{
			"buffer":0,
			"byteLength":588,
			"byteOffset":1001832,
			"target":34962
		},
		{
			"buffer":0,
			"byteLength":392,
			"byteOffset":1002420,
			"target":34962
		},
		{
			"buffer":0,
			"byteLength":588,
			"byteOffset":1002812,
			"target":34962
		},
		{
			"buffer":0,
			"byteLength":588,
			"byteOffset":1003400,
			"target":34962
		},
		{
			"buffer":0,
			"byteLength":392,
			"byteOffset":1003988,
			"target":34962
		},
		{
			"buffer":0,
			"byteLength":588,
			"byteOffset":1004380,
			"target":34962
		},
		{
			"buffer":0,
			"byteLength":588,
			"byteOffset":1004968,
			"target":34962
		},
		{
			"buffer":0,
			"byteLength":392,
			"byteOffset":1005556,
			"target":34962
		},
		{
			"buffer":0,
			"byteLength":588,
			"byteOffset":1005948,
			"target":34962
		},
		{
			"buffer":0,
			"byteLength":588,
			"byteOffset":1006536,
			"target":34962
		},
		{
			"buffer":0,
			"byteLength":392,
			"byteOffset":1007124,
			"target":34962
		},
		{
			"buffer":0,
			"byteLength":612,
			"byteOffset":1007516,
			"target":34962
		},
		{
			"buffer":0,
			"byteLength":612,
			"byteOffset":1008128,
			"target":34962
		},
		{
			"buffer":0,
			"byteLength":408,
			"byteOffset":1008740,
			"target":34962
		},
		{
			"buffer":0,
			"byteLength":192,
			"byteOffset":1009148,
			"target":34963
		},
		{
			"buffer":0,
			"byteLength":48,
			"byteOffset":1009340,
			"target":34962
		},
		{
			"buffer":0,
			"byteLength":48,
			"byteOffset":1009388,
			"target":34962
		},
		{
			"buffer":0,
			"byteLength":32,
			"byteOffset":1009436,
			"target":34962
		},
		{
			"buffer":0,
			"byteLength":48,
			"byteOffset":1009468,
			"target":34962
		},
		{
			"buffer":0,
			"byteLength":48,
			"byteOffset":1009516,
			"target":34962
		},
		{
			"buffer":0,
			"byteLength":32,
			"byteOffset":1009564,
			"target":34962
		},
		{
			"buffer":0,
			"byteLength":48,
			"byteOffset":1009596,
			"target":34962
		},
		{
			"buffer":0,
			"byteLength":48,
			"byteOffset":1009644,
			"target":34962
		},
		{
			"buffer":0,
			"byteLength":32,
			"byteOffset":1009692,
			"target":34962
		},
		{
			"buffer":0,
			"byteLength":48,
			"byteOffset":1009724,
			"target":34962
		},
		{
			"buffer":0,
			"byteLength":48,
			"byteOffset":1009772,
			"target":34962
		},
		{
			"buffer":0,
			"byteLength":32,
			"byteOffset":1009820,
			"target":34962
		},
		{
			"buffer":0,
			"byteLength":48,
			"byteOffset":1009852,
			"target":34962
		},
		{
			"buffer":0,
			"byteLength":48,
			"byteOffset":1009900,
			"target":34962
		},
		{
			"buffer":0,
			"byteLength":32,
			"byteOffset":1009948,
			"target":34962
		},
		{
			"buffer":0,
			"byteLength":48,
			"byteOffset":1009980,
			"target":34962
		},
		{
			"buffer":0,
			"byteLength":48,
			"byteOffset":1010028,
			"target":34962
		},
		{
			"buffer":0,
			"byteLength":32,
			"byteOffset":1010076,
			"target":34962
		},
		{
			"buffer":0,
			"byteLength":588,
			"byteOffset":1010108,
			"target":34962
		},
		{
			"buffer":0,
			"byteLength":588,
			"byteOffset":1010696,
			"target":34962
		},
		{
			"buffer":0,
			"byteLength":392,
			"byteOffset":1011284,
			"target":34962
		},
		{
			"buffer":0,
			"byteLength":7176,
			"byteOffset":1011676,
			"target":34962
		},
		{
			"buffer":0,
			"byteLength":7176,
			"byteOffset":1018852,
			"target":34962
		},
		{
			"buffer":0,
			"byteLength":4784,
			"byteOffset":1026028,
			"target":34962
		},
		{
			"buffer":0,
			"byteLength":2016,
			"byteOffset":1030812,
			"target":34963
		},
		{
			"buffer":0,
			"byteLength":1944,
			"byteOffset":1032828,
			"target":34962
		},
		{
			"buffer":0,
			"byteLength":1944,
			"byteOffset":1034772,
			"target":34962
		},
		{
			"buffer":0,
			"byteLength":1296,
			"byteOffset":1036716,
			"target":34962
		},
		{
			"buffer":0,
			"byteLength":660,
			"byteOffset":1038012,
			"target":34963
		},
		{
			"buffer":0,
			"byteLength":4944,
			"byteOffset":1038672,
			"target":34962
		},
		{
			"buffer":0,
			"byteLength":4944,
			"byteOffset":1043616,
			"target":34962
		},
		{
			"buffer":0,
			"byteLength":3296,
			"byteOffset":1048560,
			"target":34962
		},
		{
			"buffer":0,
			"byteLength":2136,
			"byteOffset":1051856,
			"target":34963
		},
		{
			"buffer":0,
			"byteLength":1140,
			"byteOffset":1053992,
			"target":34962
		},
		{
			"buffer":0,
			"byteLength":1140,
			"byteOffset":1055132,
			"target":34962
		},
		{
			"buffer":0,
			"byteLength":760,
			"byteOffset":1056272,
			"target":34962
		},
		{
			"buffer":0,
			"byteLength":840,
			"byteOffset":1057032,
			"target":34963
		},
		{
			"buffer":0,
			"byteLength":1140,
			"byteOffset":1057872,
			"target":34962
		},
		{
			"buffer":0,
			"byteLength":1140,
			"byteOffset":1059012,
			"target":34962
		},
		{
			"buffer":0,
			"byteLength":760,
			"byteOffset":1060152,
			"target":34962
		},
		{
			"buffer":0,
			"byteLength":864,
			"byteOffset":1060912,
			"target":34963
		},
		{
			"buffer":0,
			"byteLength":4944,
			"byteOffset":1061776,
			"target":34962
		},
		{
			"buffer":0,
			"byteLength":4944,
			"byteOffset":1066720,
			"target":34962
		},
		{
			"buffer":0,
			"byteLength":3296,
			"byteOffset":1071664,
			"target":34962
		},
		{
			"buffer":0,
			"byteLength":2136,
			"byteOffset":1074960,
			"target":34963
		},
		{
			"buffer":0,
			"byteLength":1140,
			"byteOffset":1077096,
			"target":34962
		},
		{
			"buffer":0,
			"byteLength":1140,
			"byteOffset":1078236,
			"target":34962
		},
		{
			"buffer":0,
			"byteLength":760,
			"byteOffset":1079376,
			"target":34962
		},
		{
			"buffer":0,
			"byteLength":3912,
			"byteOffset":1080136,
			"target":34962
		},
		{
			"buffer":0,
			"byteLength":3912,
			"byteOffset":1084048,
			"target":34962
		},
		{
			"buffer":0,
			"byteLength":2608,
			"byteOffset":1087960,
			"target":34962
		},
		{
			"buffer":0,
			"byteLength":2166,
			"byteOffset":1090568,
			"target":34963
		},
		{
			"buffer":0,
			"byteLength":4944,
			"byteOffset":1092736,
			"target":34962
		},
		{
			"buffer":0,
			"byteLength":4944,
			"byteOffset":1097680,
			"target":34962
		},
		{
			"buffer":0,
			"byteLength":3296,
			"byteOffset":1102624,
			"target":34962
		},
		{
			"buffer":0,
			"byteLength":2136,
			"byteOffset":1105920,
			"target":34963
		}
	],
	"samplers":[
		{
			"magFilter":9728,
			"minFilter":9984
		},
		{
			"magFilter":9728,
			"minFilter":9984,
			"wrapS":33071,
			"wrapT":33071
		}
	],
	"buffers":[
		{
			"byteLength":1108056,
			"uri":"Arena.bin"
		}
	]
}
